<?xml version="1.0" encoding="UTF-8" standalone="no"?>
<svg xmlns="http://www.w3.org/2000/svg" xmlns:xlink="http://www.w3.org/1999/xlink"
     contentScriptType="application/ecmascript" contentStyleType="text/css" height="413px" preserveAspectRatio="none"
     style="width:932px;height:413px;background:#FFFFFF;" version="1.1" viewBox="0 0 932 413" width="932px"
     zoomAndPan="magnify">
    <defs>
        <filter height="300%" id="f1v6np778dojs9" width="300%" x="-1" y="-1">
            <feGaussianBlur result="blurOut" stdDeviation="2.0"/>
            <feColorMatrix in="blurOut" result="blurOut2" type="matrix"
                           values="0 0 0 0 0 0 0 0 0 0 0 0 0 0 0 0 0 0 .4 0"/>
            <feOffset dx="4.0" dy="4.0" in="blurOut2" result="blurOut3"/>
            <feBlend in="SourceGraphic" in2="blurOut3" mode="normal"/>
        </filter>
    </defs>
    <g>
        <text fill="#000000" font-family="sans-serif" font-size="18" lengthAdjust="spacing" textLength="227" x="350.5"
              y="28.708">RPC calculate-git-like-diff
        </text>
        <rect fill="#FFFFFF" filter="url(#f1v6np778dojs9)" height="190.9297" style="stroke:#000000;stroke-width:2.0;"
              width="689.5" x="228.5" y="169.3828"/>
        <line style="stroke:#A80036;stroke-width:1.0;stroke-dasharray:5.0,5.0;" x1="48" x2="48" y1="123.25"
              y2="406.4453"/>
        <line style="stroke:#A80036;stroke-width:1.0;stroke-dasharray:5.0,5.0;" x1="334.5" x2="334.5" y1="123.25"
              y2="406.4453"/>
        <line style="stroke:#A80036;stroke-width:1.0;stroke-dasharray:5.0,5.0;" x1="575" x2="575" y1="123.25"
              y2="406.4453"/>
        <line style="stroke:#A80036;stroke-width:1.0;stroke-dasharray:5.0,5.0;" x1="800" x2="800" y1="123.25"
              y2="406.4453"/>
        <text fill="#000000" font-family="sans-serif" font-size="14" lengthAdjust="spacing" textLength="80" x="5"
              y="119.9482">Application
        </text>
        <ellipse cx="48" cy="49.9531" fill="#FEFECE" filter="url(#f1v6np778dojs9)" rx="8" ry="8"
                 style="stroke:#A80036;stroke-width:2.0;"/>
        <path d="M48,57.9531 L48,84.9531 M35,65.9531 L61,65.9531 M48,84.9531 L35,99.9531 M48,84.9531 L61,99.9531 "
              fill="none" filter="url(#f1v6np778dojs9)" style="stroke:#A80036;stroke-width:2.0;"/>
        <rect fill="#FEFECE" filter="url(#f1v6np778dojs9)" height="30.2969" style="stroke:#A80036;stroke-width:1.5;"
              width="189" x="238.5" y="87.9531"/>
        <text fill="#000000" font-family="sans-serif" font-size="14" lengthAdjust="spacing" textLength="175" x="245.5"
              y="107.9482">Uniconfig Node Manager
        </text>
        <text fill="#000000" font-family="sans-serif" font-size="14" lengthAdjust="spacing" textLength="210" x="467"
              y="119.9482">Uniconfig topology (CONF DS)
        </text>
        <path d="M557,70.9531 C557,60.9531 575,60.9531 575,60.9531 C575,60.9531 593,60.9531 593,70.9531 L593,96.9531 C593,106.9531 575,106.9531 575,106.9531 C575,106.9531 557,106.9531 557,96.9531 L557,70.9531 "
              fill="#FEFECE" filter="url(#f1v6np778dojs9)" style="stroke:#000000;stroke-width:1.5;"/>
        <path d="M557,70.9531 C557,80.9531 575,80.9531 575,80.9531 C575,80.9531 593,80.9531 593,70.9531 " fill="none"
              style="stroke:#000000;stroke-width:1.5;"/>
        <text fill="#000000" font-family="sans-serif" font-size="14" lengthAdjust="spacing" textLength="209" x="693"
              y="119.9482">Uniconfig topology (OPER DS)
        </text>
        <path d="M782.5,70.9531 C782.5,60.9531 800.5,60.9531 800.5,60.9531 C800.5,60.9531 818.5,60.9531 818.5,70.9531 L818.5,96.9531 C818.5,106.9531 800.5,106.9531 800.5,106.9531 C800.5,106.9531 782.5,106.9531 782.5,96.9531 L782.5,70.9531 "
              fill="#FEFECE" filter="url(#f1v6np778dojs9)" style="stroke:#000000;stroke-width:1.5;"/>
        <path d="M782.5,70.9531 C782.5,80.9531 800.5,80.9531 800.5,80.9531 C800.5,80.9531 818.5,80.9531 818.5,70.9531 "
              fill="none" style="stroke:#000000;stroke-width:1.5;"/>
        <polygon fill="#A80036" points="323,150.3828,333,154.3828,323,158.3828,327,154.3828"
                 style="stroke:#A80036;stroke-width:1.0;"/>
        <line style="stroke:#A80036;stroke-width:1.0;" x1="48" x2="329" y1="154.3828" y2="154.3828"/>
        <text fill="#000000" font-family="sans-serif" font-size="13" lengthAdjust="spacing" textLength="263" x="55"
              y="149.3169">RPC calculate-git-like-diff (target nodes)
        </text>
        <path d="M228.5,169.3828 L304.5,169.3828 L304.5,176.3828 L294.5,186.3828 L228.5,186.3828 L228.5,169.3828 "
              fill="#EEEEEE" style="stroke:#000000;stroke-width:1.0;"/>
        <rect fill="none" height="190.9297" style="stroke:#000000;stroke-width:2.0;" width="689.5" x="228.5"
              y="169.3828"/>
        <text fill="#000000" font-family="sans-serif" font-size="13" font-weight="bold" lengthAdjust="spacing"
              textLength="31" x="243.5" y="182.4497">loop
        </text>
        <text fill="#000000" font-family="sans-serif" font-size="11" font-weight="bold" lengthAdjust="spacing"
              textLength="138" x="319.5" y="181.5933">[for each target-node]
        </text>
        <polygon fill="#A80036" points="788.5,203.6484,798.5,207.6484,788.5,211.6484,792.5,207.6484"
                 style="stroke:#A80036;stroke-width:1.0;"/>
        <line style="stroke:#A80036;stroke-width:1.0;" x1="335" x2="794.5" y1="207.6484" y2="207.6484"/>
        <text fill="#000000" font-family="sans-serif" font-size="13" lengthAdjust="spacing" textLength="199" x="342"
              y="202.5825">read actual node configuration
        </text>
        <line style="stroke:#A80036;stroke-width:1.0;" x1="335" x2="345" y1="236.7813" y2="232.7813"/>
        <line style="stroke:#A80036;stroke-width:1.0;" x1="335" x2="345" y1="236.7813" y2="240.7813"/>
        <line style="stroke:#A80036;stroke-width:1.0;stroke-dasharray:2.0,2.0;" x1="335" x2="799.5" y1="236.7813"
              y2="236.7813"/>
        <text fill="#000000" font-family="sans-serif" font-size="13" lengthAdjust="spacing" textLength="130" x="352"
              y="231.7153">actual configuration
        </text>
        <polygon fill="#A80036" points="563,261.9141,573,265.9141,563,269.9141,567,265.9141"
                 style="stroke:#A80036;stroke-width:1.0;"/>
        <line style="stroke:#A80036;stroke-width:1.0;" x1="335" x2="569" y1="265.9141" y2="265.9141"/>
        <text fill="#000000" font-family="sans-serif" font-size="13" lengthAdjust="spacing" textLength="216" x="342"
              y="260.8481">read intended node configuration
        </text>
        <line style="stroke:#A80036;stroke-width:1.0;" x1="335" x2="345" y1="295.0469" y2="291.0469"/>
        <line style="stroke:#A80036;stroke-width:1.0;" x1="335" x2="345" y1="295.0469" y2="299.0469"/>
        <line style="stroke:#A80036;stroke-width:1.0;stroke-dasharray:2.0,2.0;" x1="335" x2="574" y1="295.0469"
              y2="295.0469"/>
        <text fill="#000000" font-family="sans-serif" font-size="13" lengthAdjust="spacing" textLength="147" x="352"
              y="289.981">intended configuration
        </text>
        <line style="stroke:#A80036;stroke-width:1.0;" x1="335" x2="377" y1="339.3125" y2="339.3125"/>
        <line style="stroke:#A80036;stroke-width:1.0;" x1="377" x2="377" y1="339.3125" y2="352.3125"/>
        <line style="stroke:#A80036;stroke-width:1.0;" x1="336" x2="377" y1="352.3125" y2="352.3125"/>
        <polygon fill="#A80036" points="346,348.3125,336,352.3125,346,356.3125,342,352.3125"
                 style="stroke:#A80036;stroke-width:1.0;"/>
        <text fill="#000000" font-family="sans-serif" font-size="13" lengthAdjust="spacing" textLength="199" x="342"
              y="319.1138">create diff between actual and
        </text>
        <text fill="#000000" font-family="sans-serif" font-size="13" lengthAdjust="spacing" textLength="206" x="346"
              y="334.2466">intended node in a git like style
        </text>
        <polygon fill="#A80036" points="59,384.4453,49,388.4453,59,392.4453,55,388.4453"
                 style="stroke:#A80036;stroke-width:1.0;"/>
        <line style="stroke:#A80036;stroke-width:1.0;stroke-dasharray:2.0,2.0;" x1="53" x2="334" y1="388.4453"
              y2="388.4453"/>
        <text fill="#000000" font-family="sans-serif" font-size="13" lengthAdjust="spacing" textLength="93" x="65"
              y="383.3794">RPC result diff
        </text><!--MD5=[85fe715a0b6ccb983be4513c654fb0bd]
@startuml
hide footbox
title RPC calculate-git-like-diff

actor Application
participant "Uniconfig Node Manager"
database "Uniconfig topology (CONF DS)"
database "Uniconfig topology (OPER DS)"

Application -> "Uniconfig Node Manager": RPC calculate-git-like-diff (target nodes)
loop for each target-node
    "Uniconfig Node Manager" -> "Uniconfig topology (OPER DS)": read actual node configuration
    "Uniconfig topology (OPER DS)" - ->> "Uniconfig Node Manager": actual configuration
    "Uniconfig Node Manager" -> "Uniconfig topology (CONF DS)": read intended node configuration
    "Uniconfig topology (CONF DS)" - ->> "Uniconfig Node Manager": intended configuration
    "Uniconfig Node Manager" -> "Uniconfig Node Manager": create diff between actual and\n intended node in a git like style
end
"Uniconfig Node Manager" - -> Application: RPC result diff
@enduml

PlantUML version 1.2021.11(Sat Oct 02 15:26:11 CEST 2021)
(GPL source distribution)
Java Runtime: OpenJDK Runtime Environment
JVM: OpenJDK 64-Bit Server VM
Default Encoding: UTF-8
Language: en
Country: GB
-->
    </g>
</svg>