<?xml version="1.0" encoding="UTF-8" standalone="no"?>
<svg xmlns="http://www.w3.org/2000/svg" xmlns:xlink="http://www.w3.org/1999/xlink"
     contentScriptType="application/ecmascript" contentStyleType="text/css" height="367px" preserveAspectRatio="none"
     style="width:781px;height:367px;background:#FFFFFF;" version="1.1" viewBox="0 0 781 367" width="781px"
     zoomAndPan="magnify">
    <defs>
        <filter height="300%" id="f12ye8m17c9a9q" width="300%" x="-1" y="-1">
            <feGaussianBlur result="blurOut" stdDeviation="2.0"/>
            <feColorMatrix in="blurOut" result="blurOut2" type="matrix"
                           values="0 0 0 0 0 0 0 0 0 0 0 0 0 0 0 0 0 0 .4 0"/>
            <feOffset dx="4.0" dy="4.0" in="blurOut2" result="blurOut3"/>
            <feBlend in="SourceGraphic" in2="blurOut3" mode="normal"/>
        </filter>
    </defs>
    <g>
        <text fill="#000000" font-family="sans-serif" font-size="18" lengthAdjust="spacing" textLength="233" x="276"
              y="28.708">RPC calculate-subtree-diff
        </text>
        <rect fill="#FFFFFF" filter="url(#f12ye8m17c9a9q)" height="217.9297" style="stroke:#A80036;stroke-width:1.0;"
              width="10" x="346" y="133.25"/>
        <rect fill="#FFFFFF" filter="url(#f12ye8m17c9a9q)" height="217.9297" style="stroke:#A80036;stroke-width:1.0;"
              width="10" x="737" y="133.25"/>
        <line style="stroke:#A80036;stroke-width:1.0;stroke-dasharray:5.0,5.0;" x1="48" x2="48" y1="123.25"
              y2="360.1797"/>
        <line style="stroke:#A80036;stroke-width:1.0;stroke-dasharray:5.0,5.0;" x1="351" x2="351" y1="123.25"
              y2="360.1797"/>
        <line style="stroke:#A80036;stroke-width:1.0;stroke-dasharray:5.0,5.0;" x1="742" x2="742" y1="123.25"
              y2="360.1797"/>
        <text fill="#000000" font-family="sans-serif" font-size="14" lengthAdjust="spacing" textLength="80" x="5"
              y="119.9482">Application
        </text>
        <ellipse cx="48" cy="49.9531" fill="#FEFECE" filter="url(#f12ye8m17c9a9q)" rx="8" ry="8"
                 style="stroke:#A80036;stroke-width:2.0;"/>
        <path d="M48,57.9531 L48,84.9531 M35,65.9531 L61,65.9531 M48,84.9531 L35,99.9531 M48,84.9531 L61,99.9531 "
              fill="none" filter="url(#f12ye8m17c9a9q)" style="stroke:#A80036;stroke-width:2.0;"/>
        <rect fill="#FEFECE" filter="url(#f12ye8m17c9a9q)" height="30.2969" style="stroke:#A80036;stroke-width:1.5;"
              width="208" x="245" y="87.9531"/>
        <text fill="#000000" font-family="sans-serif" font-size="14" lengthAdjust="spacing" textLength="194" x="252"
              y="107.9482">Uniconfig Subtree Manager
        </text>
        <text fill="#000000" font-family="sans-serif" font-size="14" lengthAdjust="spacing" textLength="70" x="704"
              y="119.9482">Datastore
        </text>
        <path d="M724,70.9531 C724,60.9531 742,60.9531 742,60.9531 C742,60.9531 760,60.9531 760,70.9531 L760,96.9531 C760,106.9531 742,106.9531 742,106.9531 C742,106.9531 724,106.9531 724,96.9531 L724,70.9531 "
              fill="#FEFECE" filter="url(#f12ye8m17c9a9q)" style="stroke:#000000;stroke-width:1.5;"/>
        <path d="M724,70.9531 C724,80.9531 742,80.9531 742,80.9531 C742,80.9531 760,80.9531 760,70.9531 " fill="none"
              style="stroke:#000000;stroke-width:1.5;"/>
        <rect fill="#FFFFFF" filter="url(#f12ye8m17c9a9q)" height="217.9297" style="stroke:#A80036;stroke-width:1.0;"
              width="10" x="346" y="133.25"/>
        <rect fill="#FFFFFF" filter="url(#f12ye8m17c9a9q)" height="217.9297" style="stroke:#A80036;stroke-width:1.0;"
              width="10" x="737" y="133.25"/>
        <polygon fill="#A80036" points="334,150.3828,344,154.3828,334,158.3828,338,154.3828"
                 style="stroke:#A80036;stroke-width:1.0;"/>
        <line style="stroke:#A80036;stroke-width:1.0;" x1="48" x2="340" y1="154.3828" y2="154.3828"/>
        <text fill="#000000" font-family="sans-serif" font-size="13" lengthAdjust="spacing" textLength="274" x="55"
              y="149.3169">RPC calculate-subtree-diff (source, target)
        </text>
        <polygon fill="#A80036" points="725,179.5156,735,183.5156,725,187.5156,729,183.5156"
                 style="stroke:#A80036;stroke-width:1.0;"/>
        <line style="stroke:#A80036;stroke-width:1.0;" x1="356" x2="731" y1="183.5156" y2="183.5156"/>
        <text fill="#000000" font-family="sans-serif" font-size="13" lengthAdjust="spacing" textLength="246" x="363"
              y="178.4497">read source data by path and location
        </text>
        <line style="stroke:#A80036;stroke-width:1.0;" x1="356" x2="366" y1="212.6484" y2="208.6484"/>
        <line style="stroke:#A80036;stroke-width:1.0;" x1="356" x2="366" y1="212.6484" y2="216.6484"/>
        <line style="stroke:#A80036;stroke-width:1.0;stroke-dasharray:2.0,2.0;" x1="356" x2="736" y1="212.6484"
              y2="212.6484"/>
        <text fill="#000000" font-family="sans-serif" font-size="13" lengthAdjust="spacing" textLength="96" x="373"
              y="207.5825">source subtree
        </text>
        <polygon fill="#A80036" points="725,237.7813,735,241.7813,725,245.7813,729,241.7813"
                 style="stroke:#A80036;stroke-width:1.0;"/>
        <line style="stroke:#A80036;stroke-width:1.0;" x1="356" x2="731" y1="241.7813" y2="241.7813"/>
        <text fill="#000000" font-family="sans-serif" font-size="13" lengthAdjust="spacing" textLength="242" x="363"
              y="236.7153">read target data by path and location
        </text>
        <line style="stroke:#A80036;stroke-width:1.0;" x1="356" x2="366" y1="270.9141" y2="266.9141"/>
        <line style="stroke:#A80036;stroke-width:1.0;" x1="356" x2="366" y1="270.9141" y2="274.9141"/>
        <line style="stroke:#A80036;stroke-width:1.0;stroke-dasharray:2.0,2.0;" x1="356" x2="736" y1="270.9141"
              y2="270.9141"/>
        <text fill="#000000" font-family="sans-serif" font-size="13" lengthAdjust="spacing" textLength="92" x="373"
              y="265.8481">target subtree
        </text>
        <line style="stroke:#A80036;stroke-width:1.0;" x1="356" x2="398" y1="300.0469" y2="300.0469"/>
        <line style="stroke:#A80036;stroke-width:1.0;" x1="398" x2="398" y1="300.0469" y2="313.0469"/>
        <line style="stroke:#A80036;stroke-width:1.0;" x1="357" x2="398" y1="313.0469" y2="313.0469"/>
        <polygon fill="#A80036" points="367,309.0469,357,313.0469,367,317.0469,363,313.0469"
                 style="stroke:#A80036;stroke-width:1.0;"/>
        <text fill="#000000" font-family="sans-serif" font-size="13" lengthAdjust="spacing" textLength="367" x="363"
              y="294.981">diff between source and target subtree in a git-like style
        </text>
        <line style="stroke:#A80036;stroke-width:1.0;" x1="48" x2="58" y1="342.1797" y2="338.1797"/>
        <line style="stroke:#A80036;stroke-width:1.0;" x1="48" x2="58" y1="342.1797" y2="346.1797"/>
        <line style="stroke:#A80036;stroke-width:1.0;stroke-dasharray:2.0,2.0;" x1="48" x2="345" y1="342.1797"
              y2="342.1797"/>
        <text fill="#000000" font-family="sans-serif" font-size="13" lengthAdjust="spacing" textLength="125" x="65"
              y="337.1138">RPC result with diff
        </text><!--MD5=[2a7f54885d87cc07055909ee548e4f15]
@startuml
hide footbox
title RPC calculate-subtree-diff

actor Application
participant "Uniconfig Subtree Manager"
database "Datastore"

activate "Uniconfig Subtree Manager"
activate Datastore

Application -> "Uniconfig Subtree Manager": RPC calculate-subtree-diff (source, target)
"Uniconfig Subtree Manager" -> "Datastore": read source data by path and location
"Datastore" - ->> "Uniconfig Subtree Manager": source subtree
"Uniconfig Subtree Manager" -> "Datastore": read target data by path and location
"Datastore" - ->> "Uniconfig Subtree Manager": target subtree
"Uniconfig Subtree Manager" -> "Uniconfig Subtree Manager": diff between source and target subtree in a git-like style
"Uniconfig Subtree Manager" - ->> Application: RPC result with diff
@enduml

PlantUML version 1.2021.11(Sat Oct 02 15:26:11 CEST 2021)
(GPL source distribution)
Java Runtime: OpenJDK Runtime Environment
JVM: OpenJDK 64-Bit Server VM
Default Encoding: UTF-8
Language: en
Country: GB
-->
    </g>
</svg>