<?xml version="1.0" encoding="UTF-8" standalone="no"?><svg xmlns="http://www.w3.org/2000/svg" xmlns:xlink="http://www.w3.org/1999/xlink" contentScriptType="application/ecmascript" contentStyleType="text/css" height="984px" preserveAspectRatio="none" style="width:997px;height:984px;background:#FFFFFF;" version="1.1" viewBox="0 0 997 984" width="997px" zoomAndPan="magnify"><defs><filter height="300%" id="f1d04s6gdvkrvr" width="300%" x="-1" y="-1"><feGaussianBlur result="blurOut" stdDeviation="2.0"/><feColorMatrix in="blurOut" result="blurOut2" type="matrix" values="0 0 0 0 0 0 0 0 0 0 0 0 0 0 0 0 0 0 .4 0"/><feOffset dx="4.0" dy="4.0" in="blurOut2" result="blurOut3"/><feBlend in="SourceGraphic" in2="blurOut3" mode="normal"/></filter></defs><g><text fill="#000000" font-family="sans-serif" font-size="18" lengthAdjust="spacing" textLength="127" x="432.75" y="28.708">Locking phase</text><rect fill="#FFFFFF" filter="url(#f1d04s6gdvkrvr)" height="835.0156" style="stroke:#A80036;stroke-width:1.0;" width="10" x="263" y="133.25"/><rect fill="#FFFFFF" filter="url(#f1d04s6gdvkrvr)" height="835.0156" style="stroke:#A80036;stroke-width:1.0;" width="10" x="443.5" y="133.25"/><rect fill="#FFFFFF" filter="url(#f1d04s6gdvkrvr)" height="231.2266" style="stroke:#A80036;stroke-width:1.0;" width="10" x="580.5" y="737.0391"/><rect fill="#FFFFFF" filter="url(#f1d04s6gdvkrvr)" height="75.3984" style="stroke:#000000;stroke-width:2.0;" width="697" x="165.5" y="169.3828"/><rect fill="#FFFFFF" filter="url(#f1d04s6gdvkrvr)" height="91.5313" style="stroke:#000000;stroke-width:2.0;" width="360.5" x="10" y="258.7813"/><rect fill="#FFFFFF" filter="url(#f1d04s6gdvkrvr)" height="175.7969" style="stroke:#000000;stroke-width:2.0;" width="697" x="165.5" y="364.3125"/><rect fill="#FFFFFF" filter="url(#f1d04s6gdvkrvr)" height="91.5313" style="stroke:#000000;stroke-width:2.0;" width="384" x="10" y="554.1094"/><rect fill="#FFFFFF" filter="url(#f1d04s6gdvkrvr)" height="120.6953" style="stroke:#000000;stroke-width:2.0;" width="479" x="165.5" y="659.6406"/><rect fill="#FFFFFF" filter="url(#f1d04s6gdvkrvr)" height="91.5313" style="stroke:#000000;stroke-width:2.0;" width="360.5" x="10" y="794.3359"/><line style="stroke:#A80036;stroke-width:1.0;stroke-dasharray:5.0,5.0;" x1="63" x2="63" y1="123.25" y2="977.2656"/><line style="stroke:#A80036;stroke-width:1.0;stroke-dasharray:5.0,5.0;" x1="267.5" x2="267.5" y1="123.25" y2="977.2656"/><line style="stroke:#A80036;stroke-width:1.0;stroke-dasharray:5.0,5.0;" x1="448.5" x2="448.5" y1="123.25" y2="977.2656"/><line style="stroke:#A80036;stroke-width:1.0;stroke-dasharray:5.0,5.0;" x1="585.5" x2="585.5" y1="738.5547" y2="977.2656"/><line style="stroke:#A80036;stroke-width:1.0;stroke-dasharray:5.0,5.0;" x1="699.5" x2="699.5" y1="123.25" y2="977.2656"/><line style="stroke:#A80036;stroke-width:1.0;stroke-dasharray:5.0,5.0;" x1="808.5" x2="808.5" y1="123.25" y2="977.2656"/><line style="stroke:#A80036;stroke-width:1.0;stroke-dasharray:5.0,5.0;" x1="924.5" x2="924.5" y1="123.25" y2="977.2656"/><text fill="#000000" font-family="sans-serif" font-size="14" lengthAdjust="spacing" textLength="80" x="20" y="119.9482">Application</text><ellipse cx="63" cy="49.9531" fill="#FEFECE" filter="url(#f1d04s6gdvkrvr)" rx="8" ry="8" style="stroke:#A80036;stroke-width:2.0;"/><path d="M63,57.9531 L63,84.9531 M50,65.9531 L76,65.9531 M63,84.9531 L50,99.9531 M63,84.9531 L76,99.9531 " fill="none" filter="url(#f1d04s6gdvkrvr)" style="stroke:#A80036;stroke-width:2.0;"/><rect fill="#FEFECE" filter="url(#f1d04s6gdvkrvr)" height="30.2969" style="stroke:#A80036;stroke-width:1.5;" width="181" x="175.5" y="87.9531"/><text fill="#000000" font-family="sans-serif" font-size="14" lengthAdjust="spacing" textLength="167" x="182.5" y="107.9482">UniconfigNodeManager</text><rect fill="#FEFECE" filter="url(#f1d04s6gdvkrvr)" height="30.2969" style="stroke:#A80036;stroke-width:1.5;" width="152" x="370.5" y="87.9531"/><text fill="#000000" font-family="sans-serif" font-size="14" lengthAdjust="spacing" textLength="138" x="377.5" y="107.9482">MountpointRegistry</text><text fill="#000000" font-family="sans-serif" font-size="14" lengthAdjust="spacing" textLength="105" x="644.5" y="119.9482">OperDatastore</text><path d="M682,70.9531 C682,60.9531 700,60.9531 700,60.9531 C700,60.9531 718,60.9531 718,70.9531 L718,96.9531 C718,106.9531 700,106.9531 700,106.9531 C700,106.9531 682,106.9531 682,96.9531 L682,70.9531 " fill="#FEFECE" filter="url(#f1d04s6gdvkrvr)" style="stroke:#000000;stroke-width:1.5;"/><path d="M682,70.9531 C682,80.9531 700,80.9531 700,80.9531 C700,80.9531 718,80.9531 718,70.9531 " fill="none" style="stroke:#000000;stroke-width:1.5;"/><text fill="#000000" font-family="sans-serif" font-size="14" lengthAdjust="spacing" textLength="81" x="765.5" y="119.9482">PostgreSQL</text><path d="M791,70.9531 C791,60.9531 809,60.9531 809,60.9531 C809,60.9531 827,60.9531 827,70.9531 L827,96.9531 C827,106.9531 809,106.9531 809,106.9531 C809,106.9531 791,106.9531 791,96.9531 L791,70.9531 " fill="#FEFECE" filter="url(#f1d04s6gdvkrvr)" style="stroke:#000000;stroke-width:1.5;"/><path d="M791,70.9531 C791,80.9531 809,80.9531 809,80.9531 C809,80.9531 827,80.9531 827,70.9531 " fill="none" style="stroke:#000000;stroke-width:1.5;"/><rect fill="#FEFECE" filter="url(#f1d04s6gdvkrvr)" height="30.2969" style="stroke:#A80036;stroke-width:1.5;" width="121" x="862.5" y="87.9531"/><text fill="#000000" font-family="sans-serif" font-size="14" lengthAdjust="spacing" textLength="107" x="869.5" y="107.9482">NetworkDevice</text><rect fill="#FFFFFF" filter="url(#f1d04s6gdvkrvr)" height="835.0156" style="stroke:#A80036;stroke-width:1.0;" width="10" x="263" y="133.25"/><rect fill="#FFFFFF" filter="url(#f1d04s6gdvkrvr)" height="835.0156" style="stroke:#A80036;stroke-width:1.0;" width="10" x="443.5" y="133.25"/><rect fill="#FFFFFF" filter="url(#f1d04s6gdvkrvr)" height="231.2266" style="stroke:#A80036;stroke-width:1.0;" width="10" x="580.5" y="737.0391"/><polygon fill="#A80036" points="251,150.3828,261,154.3828,251,158.3828,255,154.3828" style="stroke:#A80036;stroke-width:1.0;"/><line style="stroke:#A80036;stroke-width:1.0;" x1="63" x2="257" y1="154.3828" y2="154.3828"/><text fill="#000000" font-family="sans-serif" font-size="13" lengthAdjust="spacing" textLength="176" x="70" y="149.3169">RPC commit (target nodes)</text><path d="M165.5,169.3828 L241.5,169.3828 L241.5,176.3828 L231.5,186.3828 L165.5,186.3828 L165.5,169.3828 " fill="#EEEEEE" style="stroke:#000000;stroke-width:1.0;"/><rect fill="none" height="75.3984" style="stroke:#000000;stroke-width:2.0;" width="697" x="165.5" y="169.3828"/><text fill="#000000" font-family="sans-serif" font-size="13" font-weight="bold" lengthAdjust="spacing" textLength="31" x="180.5" y="182.4497">loop</text><text fill="#000000" font-family="sans-serif" font-size="11" font-weight="bold" lengthAdjust="spacing" textLength="137" x="256.5" y="181.5933">[for each target node]</text><polygon fill="#A80036" points="797,203.6484,807,207.6484,797,211.6484,801,207.6484" style="stroke:#A80036;stroke-width:1.0;"/><line style="stroke:#A80036;stroke-width:1.0;" x1="273" x2="803" y1="207.6484" y2="207.6484"/><text fill="#000000" font-family="sans-serif" font-size="13" lengthAdjust="spacing" textLength="102" x="280" y="202.5825">try to lock node</text><line style="stroke:#A80036;stroke-width:1.0;" x1="273" x2="283" y1="236.7813" y2="232.7813"/><line style="stroke:#A80036;stroke-width:1.0;" x1="273" x2="283" y1="236.7813" y2="240.7813"/><line style="stroke:#A80036;stroke-width:1.0;stroke-dasharray:2.0,2.0;" x1="273" x2="808" y1="236.7813" y2="236.7813"/><text fill="#000000" font-family="sans-serif" font-size="13" lengthAdjust="spacing" textLength="87" x="290" y="231.7153">locked status</text><path d="M10,258.7813 L79,258.7813 L79,265.7813 L69,275.7813 L10,275.7813 L10,258.7813 " fill="#EEEEEE" style="stroke:#000000;stroke-width:1.0;"/><rect fill="none" height="91.5313" style="stroke:#000000;stroke-width:2.0;" width="360.5" x="10" y="258.7813"/><text fill="#000000" font-family="sans-serif" font-size="13" font-weight="bold" lengthAdjust="spacing" textLength="24" x="25" y="271.8481">opt</text><text fill="#000000" font-family="sans-serif" font-size="11" font-weight="bold" lengthAdjust="spacing" textLength="171" x="94" y="270.9917">[failed to lock some nodes]</text><rect fill="#FFFFFF" filter="url(#f1d04s6gdvkrvr)" height="40.2656" style="stroke:#000000;stroke-width:2.0;" width="187" x="172.5" y="275.9141"/><path d="M172.5,275.9141 L238.5,275.9141 L238.5,282.9141 L228.5,292.9141 L172.5,292.9141 L172.5,275.9141 " fill="#EEEEEE" style="stroke:#000000;stroke-width:2.0;"/><text fill="#000000" font-family="sans-serif" font-size="13" font-weight="bold" lengthAdjust="spacing" textLength="21" x="185.5" y="289.981">ref</text><text fill="#000000" font-family="sans-serif" font-size="13" lengthAdjust="spacing" textLength="113" x="211.5" y="308.981">Close transaction</text><line style="stroke:#A80036;stroke-width:1.0;" x1="63" x2="73" y1="342.3125" y2="338.3125"/><line style="stroke:#A80036;stroke-width:1.0;" x1="63" x2="73" y1="342.3125" y2="346.3125"/><line style="stroke:#A80036;stroke-width:1.0;stroke-dasharray:2.0,2.0;" x1="63" x2="262" y1="342.3125" y2="342.3125"/><text fill="#000000" font-family="sans-serif" font-size="13" lengthAdjust="spacing" textLength="156" x="80" y="337.2466">RPC response with error</text><path d="M165.5,364.3125 L241.5,364.3125 L241.5,371.3125 L231.5,381.3125 L165.5,381.3125 L165.5,364.3125 " fill="#EEEEEE" style="stroke:#000000;stroke-width:1.0;"/><rect fill="none" height="175.7969" style="stroke:#000000;stroke-width:2.0;" width="697" x="165.5" y="364.3125"/><text fill="#000000" font-family="sans-serif" font-size="13" font-weight="bold" lengthAdjust="spacing" textLength="31" x="180.5" y="377.3794">loop</text><text fill="#000000" font-family="sans-serif" font-size="11" font-weight="bold" lengthAdjust="spacing" textLength="137" x="256.5" y="376.5229">[for each target node]</text><polygon fill="#A80036" points="797,398.5781,807,402.5781,797,406.5781,801,402.5781" style="stroke:#A80036;stroke-width:1.0;"/><line style="stroke:#A80036;stroke-width:1.0;" x1="273" x2="803" y1="402.5781" y2="402.5781"/><text fill="#000000" font-family="sans-serif" font-size="13" lengthAdjust="spacing" textLength="191" x="280" y="397.5122">read configuration fingerprint</text><line style="stroke:#A80036;stroke-width:1.0;" x1="273" x2="283" y1="431.7109" y2="427.7109"/><line style="stroke:#A80036;stroke-width:1.0;" x1="273" x2="283" y1="431.7109" y2="435.7109"/><line style="stroke:#A80036;stroke-width:1.0;stroke-dasharray:2.0,2.0;" x1="273" x2="808" y1="431.7109" y2="431.7109"/><text fill="#000000" font-family="sans-serif" font-size="13" lengthAdjust="spacing" textLength="108" x="290" y="426.645">fingerprint value</text><polygon fill="#A80036" points="688,456.8438,698,460.8438,688,464.8438,692,460.8438" style="stroke:#A80036;stroke-width:1.0;"/><line style="stroke:#A80036;stroke-width:1.0;" x1="273" x2="694" y1="460.8438" y2="460.8438"/><text fill="#000000" font-family="sans-serif" font-size="13" lengthAdjust="spacing" textLength="191" x="280" y="455.7778">read configuration fingerprint</text><line style="stroke:#A80036;stroke-width:1.0;" x1="273" x2="283" y1="489.9766" y2="485.9766"/><line style="stroke:#A80036;stroke-width:1.0;" x1="273" x2="283" y1="489.9766" y2="493.9766"/><line style="stroke:#A80036;stroke-width:1.0;stroke-dasharray:2.0,2.0;" x1="273" x2="699" y1="489.9766" y2="489.9766"/><text fill="#000000" font-family="sans-serif" font-size="13" lengthAdjust="spacing" textLength="108" x="290" y="484.9106">fingerprint value</text><line style="stroke:#A80036;stroke-width:1.0;" x1="273" x2="315" y1="519.1094" y2="519.1094"/><line style="stroke:#A80036;stroke-width:1.0;" x1="315" x2="315" y1="519.1094" y2="532.1094"/><line style="stroke:#A80036;stroke-width:1.0;" x1="274" x2="315" y1="532.1094" y2="532.1094"/><polygon fill="#A80036" points="284,528.1094,274,532.1094,284,536.1094,280,532.1094" style="stroke:#A80036;stroke-width:1.0;"/><text fill="#000000" font-family="sans-serif" font-size="13" lengthAdjust="spacing" textLength="136" x="280" y="514.0435">compare fingerprints</text><path d="M10,554.1094 L79,554.1094 L79,561.1094 L69,571.1094 L10,571.1094 L10,554.1094 " fill="#EEEEEE" style="stroke:#000000;stroke-width:1.0;"/><rect fill="none" height="91.5313" style="stroke:#000000;stroke-width:2.0;" width="384" x="10" y="554.1094"/><text fill="#000000" font-family="sans-serif" font-size="13" font-weight="bold" lengthAdjust="spacing" textLength="24" x="25" y="567.1763">opt</text><text fill="#000000" font-family="sans-serif" font-size="11" font-weight="bold" lengthAdjust="spacing" textLength="295" x="94" y="566.3198">[validation of configuration fingerprints failed]</text><rect fill="#FFFFFF" filter="url(#f1d04s6gdvkrvr)" height="40.2656" style="stroke:#000000;stroke-width:2.0;" width="187" x="172.5" y="571.2422"/><path d="M172.5,571.2422 L238.5,571.2422 L238.5,578.2422 L228.5,588.2422 L172.5,588.2422 L172.5,571.2422 " fill="#EEEEEE" style="stroke:#000000;stroke-width:2.0;"/><text fill="#000000" font-family="sans-serif" font-size="13" font-weight="bold" lengthAdjust="spacing" textLength="21" x="185.5" y="585.3091">ref</text><text fill="#000000" font-family="sans-serif" font-size="13" lengthAdjust="spacing" textLength="113" x="211.5" y="604.3091">Close transaction</text><line style="stroke:#A80036;stroke-width:1.0;" x1="63" x2="73" y1="637.6406" y2="633.6406"/><line style="stroke:#A80036;stroke-width:1.0;" x1="63" x2="73" y1="637.6406" y2="641.6406"/><line style="stroke:#A80036;stroke-width:1.0;stroke-dasharray:2.0,2.0;" x1="63" x2="262" y1="637.6406" y2="637.6406"/><text fill="#000000" font-family="sans-serif" font-size="13" lengthAdjust="spacing" textLength="156" x="80" y="632.5747">RPC response with error</text><path d="M165.5,659.6406 L241.5,659.6406 L241.5,666.6406 L231.5,676.6406 L165.5,676.6406 L165.5,659.6406 " fill="#EEEEEE" style="stroke:#000000;stroke-width:1.0;"/><rect fill="none" height="120.6953" style="stroke:#000000;stroke-width:2.0;" width="479" x="165.5" y="659.6406"/><text fill="#000000" font-family="sans-serif" font-size="13" font-weight="bold" lengthAdjust="spacing" textLength="31" x="180.5" y="672.7075">loop</text><text fill="#000000" font-family="sans-serif" font-size="11" font-weight="bold" lengthAdjust="spacing" textLength="137" x="256.5" y="671.8511">[for each target node]</text><polygon fill="#A80036" points="431.5,693.9063,441.5,697.9063,431.5,701.9063,435.5,697.9063" style="stroke:#A80036;stroke-width:1.0;"/><line style="stroke:#A80036;stroke-width:1.0;" x1="273" x2="437.5" y1="697.9063" y2="697.9063"/><text fill="#000000" font-family="sans-serif" font-size="13" lengthAdjust="spacing" textLength="107" x="280" y="692.8403">load mountpoint</text><line style="stroke:#A80036;stroke-width:1.0;" x1="534.5" x2="524.5" y1="727.0391" y2="723.0391"/><line style="stroke:#A80036;stroke-width:1.0;" x1="534.5" x2="524.5" y1="727.0391" y2="731.0391"/><line style="stroke:#A80036;stroke-width:1.0;stroke-dasharray:2.0,2.0;" x1="453.5" x2="535.5" y1="727.0391" y2="727.0391"/><text fill="#000000" font-family="sans-serif" font-size="13" lengthAdjust="spacing" textLength="28" x="460.5" y="721.9731">load</text><rect fill="#FEFECE" filter="url(#f1d04s6gdvkrvr)" height="30.2969" style="stroke:#A80036;stroke-width:1.5;" width="94" x="536.5" y="705.9063"/><text fill="#000000" font-family="sans-serif" font-size="14" lengthAdjust="spacing" textLength="80" x="543.5" y="725.9014">Mountpoint</text><line style="stroke:#A80036;stroke-width:1.0;" x1="273" x2="283" y1="772.3359" y2="768.3359"/><line style="stroke:#A80036;stroke-width:1.0;" x1="273" x2="283" y1="772.3359" y2="776.3359"/><line style="stroke:#A80036;stroke-width:1.0;stroke-dasharray:2.0,2.0;" x1="273" x2="442.5" y1="772.3359" y2="772.3359"/><text fill="#000000" font-family="sans-serif" font-size="13" lengthAdjust="spacing" textLength="75" x="290" y="767.27">mountpoint</text><path d="M10,794.3359 L79,794.3359 L79,801.3359 L69,811.3359 L10,811.3359 L10,794.3359 " fill="#EEEEEE" style="stroke:#000000;stroke-width:1.0;"/><rect fill="none" height="91.5313" style="stroke:#000000;stroke-width:2.0;" width="360.5" x="10" y="794.3359"/><text fill="#000000" font-family="sans-serif" font-size="13" font-weight="bold" lengthAdjust="spacing" textLength="24" x="25" y="807.4028">opt</text><text fill="#000000" font-family="sans-serif" font-size="11" font-weight="bold" lengthAdjust="spacing" textLength="205" x="94" y="806.5464">[failed to find some mountpoint]</text><rect fill="#FFFFFF" filter="url(#f1d04s6gdvkrvr)" height="40.2656" style="stroke:#000000;stroke-width:2.0;" width="187" x="172.5" y="811.4688"/><path d="M172.5,811.4688 L238.5,811.4688 L238.5,818.4688 L228.5,828.4688 L172.5,828.4688 L172.5,811.4688 " fill="#EEEEEE" style="stroke:#000000;stroke-width:2.0;"/><text fill="#000000" font-family="sans-serif" font-size="13" font-weight="bold" lengthAdjust="spacing" textLength="21" x="185.5" y="825.5356">ref</text><text fill="#000000" font-family="sans-serif" font-size="13" lengthAdjust="spacing" textLength="113" x="211.5" y="844.5356">Close transaction</text><line style="stroke:#A80036;stroke-width:1.0;" x1="63" x2="73" y1="877.8672" y2="873.8672"/><line style="stroke:#A80036;stroke-width:1.0;" x1="63" x2="73" y1="877.8672" y2="881.8672"/><line style="stroke:#A80036;stroke-width:1.0;stroke-dasharray:2.0,2.0;" x1="63" x2="262" y1="877.8672" y2="877.8672"/><text fill="#000000" font-family="sans-serif" font-size="13" lengthAdjust="spacing" textLength="156" x="80" y="872.8013">RPC response with error</text><rect fill="#FFFFFF" filter="url(#f1d04s6gdvkrvr)" height="40.2656" style="stroke:#000000;stroke-width:2.0;" width="814" x="172.5" y="892.8672"/><path d="M172.5,892.8672 L238.5,892.8672 L238.5,899.8672 L228.5,909.8672 L172.5,909.8672 L172.5,892.8672 " fill="#EEEEEE" style="stroke:#000000;stroke-width:2.0;"/><text fill="#000000" font-family="sans-serif" font-size="13" font-weight="bold" lengthAdjust="spacing" textLength="21" x="185.5" y="906.9341">ref</text><text fill="#000000" font-family="sans-serif" font-size="13" lengthAdjust="spacing" textLength="79" x="542" y="925.9341">next phases</text><line style="stroke:#A80036;stroke-width:1.0;" x1="63" x2="73" y1="959.2656" y2="955.2656"/><line style="stroke:#A80036;stroke-width:1.0;" x1="63" x2="73" y1="959.2656" y2="963.2656"/><line style="stroke:#A80036;stroke-width:1.0;stroke-dasharray:2.0,2.0;" x1="63" x2="262" y1="959.2656" y2="959.2656"/><text fill="#000000" font-family="sans-serif" font-size="13" lengthAdjust="spacing" textLength="89" x="80" y="954.1997">RPC response</text><!--MD5=[cbec794c63d6328b192a7ca7e002ffd0]
@startuml
hide footbox
title "Locking phase"

actor Application
participant UniconfigNodeManager
participant MountpointRegistry
participant Mountpoint
database OperDatastore
database PostgreSQL

activate UniconfigNodeManager
activate MountpointRegistry

Application -> UniconfigNodeManager: RPC commit (target nodes)

loop for each target node
    UniconfigNodeManager -> PostgreSQL: try to lock node
    PostgreSQL - ->> UniconfigNodeManager: locked status
end
opt failed to lock some nodes
    ref over UniconfigNodeManager: Close transaction
    UniconfigNodeManager - ->> Application: RPC response with error
end

loop for each target node
    UniconfigNodeManager -> PostgreSQL: read configuration fingerprint
    PostgreSQL - ->> UniconfigNodeManager: fingerprint value
    UniconfigNodeManager -> OperDatastore: read configuration fingerprint
    OperDatastore - ->> UniconfigNodeManager: fingerprint value
    UniconfigNodeManager -> UniconfigNodeManager: compare fingerprints
end
opt validation of configuration fingerprints failed
    ref over UniconfigNodeManager: Close transaction
    UniconfigNodeManager - ->> Application: RPC response with error
end

loop for each target node
    UniconfigNodeManager -> MountpointRegistry: load mountpoint
    MountpointRegistry - ->> Mountpoint**: load
    activate Mountpoint
    MountpointRegistry - ->> UniconfigNodeManager: mountpoint
end
opt failed to find some mountpoint
    ref over UniconfigNodeManager: Close transaction
    UniconfigNodeManager - ->> Application: RPC response with error
end

ref over UniconfigNodeManager, NetworkDevice: next phases
UniconfigNodeManager - ->> Application: RPC response
@enduml

PlantUML version 1.2021.11(Sat Oct 02 15:26:11 CEST 2021)
(GPL source distribution)
Java Runtime: OpenJDK Runtime Environment
JVM: OpenJDK 64-Bit Server VM
Default Encoding: UTF-8
Language: en
Country: GB
--></g></svg>