<?xml version="1.0" encoding="UTF-8" standalone="no"?>
<svg xmlns="http://www.w3.org/2000/svg" xmlns:xlink="http://www.w3.org/1999/xlink"
     contentScriptType="application/ecmascript" contentStyleType="text/css" height="826px" preserveAspectRatio="none"
     style="width:1146px;height:826px;background:#FFFFFF;" version="1.1" viewBox="0 0 1146 826" width="1146px"
     zoomAndPan="magnify">
    <defs>
        <filter height="300%" id="f1153pcdpsfbgp" width="300%" x="-1" y="-1">
            <feGaussianBlur result="blurOut" stdDeviation="2.0"/>
            <feColorMatrix in="blurOut" result="blurOut2" type="matrix"
                           values="0 0 0 0 0 0 0 0 0 0 0 0 0 0 0 0 0 0 .4 0"/>
            <feOffset dx="4.0" dy="4.0" in="blurOut2" result="blurOut3"/>
            <feBlend in="SourceGraphic" in2="blurOut3" mode="normal"/>
        </filter>
    </defs>
    <g>
        <text fill="#000000" font-family="sans-serif" font-size="18" lengthAdjust="spacing" textLength="486" x="328.25"
              y="28.708">Invocation of CRUD operation in UniConfig transaction
        </text>
        <rect fill="#FFFFFF" filter="url(#f1153pcdpsfbgp)" height="599.7891" style="stroke:#A80036;stroke-width:1.0;"
              width="10" x="276" y="133.25"/>
        <rect fill="#FFFFFF" filter="url(#f1153pcdpsfbgp)" height="599.7891" style="stroke:#A80036;stroke-width:1.0;"
              width="10" x="448" y="133.25"/>
        <rect fill="#FFFFFF" filter="url(#f1153pcdpsfbgp)" height="599.7891" style="stroke:#A80036;stroke-width:1.0;"
              width="10" x="613" y="133.25"/>
        <rect fill="#FFFFFF" filter="url(#f1153pcdpsfbgp)" height="599.7891" style="stroke:#A80036;stroke-width:1.0;"
              width="10" x="748" y="133.25"/>
        <rect fill="#FFFFFF" filter="url(#f1153pcdpsfbgp)" height="599.7891" style="stroke:#A80036;stroke-width:1.0;"
              width="10" x="943" y="133.25"/>
        <rect fill="#FFFFFF" filter="url(#f1153pcdpsfbgp)" height="365.5938" style="stroke:#000000;stroke-width:2.0;"
              width="902.5" x="230" y="330.3125"/>
        <rect fill="#FFFFFF" filter="url(#f1153pcdpsfbgp)" height="175.7969" style="stroke:#000000;stroke-width:2.0;"
              width="426" x="696.5" y="441.8438"/>
        <line style="stroke:#A80036;stroke-width:1.0;stroke-dasharray:5.0,5.0;" x1="48" x2="48" y1="123.25"
              y2="742.0391"/>
        <line style="stroke:#A80036;stroke-width:1.0;stroke-dasharray:5.0,5.0;" x1="281" x2="281" y1="123.25"
              y2="742.0391"/>
        <line style="stroke:#A80036;stroke-width:1.0;stroke-dasharray:5.0,5.0;" x1="452.5" x2="452.5" y1="123.25"
              y2="742.0391"/>
        <line style="stroke:#A80036;stroke-width:1.0;stroke-dasharray:5.0,5.0;" x1="617.5" x2="617.5" y1="123.25"
              y2="742.0391"/>
        <line style="stroke:#A80036;stroke-width:1.0;stroke-dasharray:5.0,5.0;" x1="752.5" x2="752.5" y1="123.25"
              y2="742.0391"/>
        <line style="stroke:#A80036;stroke-width:1.0;stroke-dasharray:5.0,5.0;" x1="947.5" x2="947.5" y1="123.25"
              y2="742.0391"/>
        <line style="stroke:#A80036;stroke-width:1.0;stroke-dasharray:5.0,5.0;" x1="1068.5" x2="1068.5" y1="123.25"
              y2="742.0391"/>
        <text fill="#000000" font-family="sans-serif" font-size="14" lengthAdjust="spacing" textLength="80" x="5"
              y="119.9482">Application
        </text>
        <ellipse cx="48" cy="49.9531" fill="#FEFECE" filter="url(#f1153pcdpsfbgp)" rx="8" ry="8"
                 style="stroke:#A80036;stroke-width:2.0;"/>
        <path d="M48,57.9531 L48,84.9531 M35,65.9531 L61,65.9531 M48,84.9531 L35,99.9531 M48,84.9531 L61,99.9531 "
              fill="none" filter="url(#f1153pcdpsfbgp)" style="stroke:#A80036;stroke-width:2.0;"/>
        <text fill="#000000" font-family="sans-serif" font-size="14" lengthAdjust="spacing" textLength="80" x="5"
              y="754.0342">Application
        </text>
        <ellipse cx="48" cy="767.3359" fill="#FEFECE" filter="url(#f1153pcdpsfbgp)" rx="8" ry="8"
                 style="stroke:#A80036;stroke-width:2.0;"/>
        <path d="M48,775.3359 L48,802.3359 M35,783.3359 L61,783.3359 M48,802.3359 L35,817.3359 M48,802.3359 L61,817.3359 "
              fill="none" filter="url(#f1153pcdpsfbgp)" style="stroke:#A80036;stroke-width:2.0;"/>
        <text fill="#000000" font-family="sans-serif" font-size="14" lengthAdjust="spacing" textLength="76" x="240"
              y="119.9482">RESTCONF
        </text>
        <path d="M260.5,78.9531 L260.5,102.9531 M260.5,90.9531 L277.5,90.9531 " fill="none"
              filter="url(#f1153pcdpsfbgp)" style="stroke:#A80036;stroke-width:2.0;"/>
        <ellipse cx="289.5" cy="90.9531" fill="#FEFECE" filter="url(#f1153pcdpsfbgp)" rx="12" ry="12"
                 style="stroke:#A80036;stroke-width:2.0;"/>
        <text fill="#000000" font-family="sans-serif" font-size="14" lengthAdjust="spacing" textLength="76" x="240"
              y="754.0342">RESTCONF
        </text>
        <path d="M260.5,761.3359 L260.5,785.3359 M260.5,773.3359 L277.5,773.3359 " fill="none"
              filter="url(#f1153pcdpsfbgp)" style="stroke:#A80036;stroke-width:2.0;"/>
        <ellipse cx="289.5" cy="773.3359" fill="#FEFECE" filter="url(#f1153pcdpsfbgp)" rx="12" ry="12"
                 style="stroke:#A80036;stroke-width:2.0;"/>
        <text fill="#000000" font-family="sans-serif" font-size="14" lengthAdjust="spacing" textLength="147" x="376.5"
              y="119.9482">TransactionManager
        </text>
        <ellipse cx="453" cy="90.9531" fill="#FEFECE" filter="url(#f1153pcdpsfbgp)" rx="12" ry="12"
                 style="stroke:#A80036;stroke-width:2.0;"/>
        <polygon fill="#A80036" points="449,78.9531,455,73.9531,453,78.9531,455,83.9531,449,78.9531"
                 style="stroke:#A80036;stroke-width:1.0;"/>
        <text fill="#000000" font-family="sans-serif" font-size="14" lengthAdjust="spacing" textLength="147" x="376.5"
              y="754.0342">TransactionManager
        </text>
        <ellipse cx="453" cy="773.3359" fill="#FEFECE" filter="url(#f1153pcdpsfbgp)" rx="12" ry="12"
                 style="stroke:#A80036;stroke-width:2.0;"/>
        <polygon fill="#A80036" points="449,761.3359,455,756.3359,453,761.3359,455,766.3359,449,761.3359"
                 style="stroke:#A80036;stroke-width:1.0;"/>
        <text fill="#000000" font-family="sans-serif" font-size="14" lengthAdjust="spacing" textLength="151" x="539.5"
              y="119.9482">UniconfigTransaction
        </text>
        <ellipse cx="618" cy="90.9531" fill="#FEFECE" filter="url(#f1153pcdpsfbgp)" rx="12" ry="12"
                 style="stroke:#A80036;stroke-width:2.0;"/>
        <line style="stroke:#A80036;stroke-width:2.0;" x1="606" x2="630" y1="104.9531" y2="104.9531"/>
        <text fill="#000000" font-family="sans-serif" font-size="14" lengthAdjust="spacing" textLength="151" x="539.5"
              y="754.0342">UniconfigTransaction
        </text>
        <ellipse cx="618" cy="773.3359" fill="#FEFECE" filter="url(#f1153pcdpsfbgp)" rx="12" ry="12"
                 style="stroke:#A80036;stroke-width:2.0;"/>
        <line style="stroke:#A80036;stroke-width:2.0;" x1="606" x2="630" y1="787.3359" y2="787.3359"/>
        <text fill="#000000" font-family="sans-serif" font-size="14" lengthAdjust="spacing" textLength="87" x="706.5"
              y="119.9482">DatastoreTx
        </text>
        <ellipse cx="753" cy="90.9531" fill="#FEFECE" filter="url(#f1153pcdpsfbgp)" rx="12" ry="12"
                 style="stroke:#A80036;stroke-width:2.0;"/>
        <line style="stroke:#A80036;stroke-width:2.0;" x1="741" x2="765" y1="104.9531" y2="104.9531"/>
        <text fill="#000000" font-family="sans-serif" font-size="14" lengthAdjust="spacing" textLength="87" x="706.5"
              y="754.0342">DatastoreTx
        </text>
        <ellipse cx="753" cy="773.3359" fill="#FEFECE" filter="url(#f1153pcdpsfbgp)" rx="12" ry="12"
                 style="stroke:#A80036;stroke-width:2.0;"/>
        <line style="stroke:#A80036;stroke-width:2.0;" x1="741" x2="765" y1="787.3359" y2="787.3359"/>
        <text fill="#000000" font-family="sans-serif" font-size="14" lengthAdjust="spacing" textLength="85" x="902.5"
              y="119.9482">DatabaseTx
        </text>
        <ellipse cx="948" cy="90.9531" fill="#FEFECE" filter="url(#f1153pcdpsfbgp)" rx="12" ry="12"
                 style="stroke:#A80036;stroke-width:2.0;"/>
        <line style="stroke:#A80036;stroke-width:2.0;" x1="936" x2="960" y1="104.9531" y2="104.9531"/>
        <text fill="#000000" font-family="sans-serif" font-size="14" lengthAdjust="spacing" textLength="85" x="902.5"
              y="754.0342">DatabaseTx
        </text>
        <ellipse cx="948" cy="773.3359" fill="#FEFECE" filter="url(#f1153pcdpsfbgp)" rx="12" ry="12"
                 style="stroke:#A80036;stroke-width:2.0;"/>
        <line style="stroke:#A80036;stroke-width:2.0;" x1="936" x2="960" y1="787.3359" y2="787.3359"/>
        <text fill="#000000" font-family="sans-serif" font-size="14" lengthAdjust="spacing" textLength="81" x="1025.5"
              y="119.9482">PostgreSQL
        </text>
        <path d="M1051,70.9531 C1051,60.9531 1069,60.9531 1069,60.9531 C1069,60.9531 1087,60.9531 1087,70.9531 L1087,96.9531 C1087,106.9531 1069,106.9531 1069,106.9531 C1069,106.9531 1051,106.9531 1051,96.9531 L1051,70.9531 "
              fill="#FEFECE" filter="url(#f1153pcdpsfbgp)" style="stroke:#000000;stroke-width:1.5;"/>
        <path d="M1051,70.9531 C1051,80.9531 1069,80.9531 1069,80.9531 C1069,80.9531 1087,80.9531 1087,70.9531 "
              fill="none" style="stroke:#000000;stroke-width:1.5;"/>
        <text fill="#000000" font-family="sans-serif" font-size="14" lengthAdjust="spacing" textLength="81" x="1025.5"
              y="754.0342">PostgreSQL
        </text>
        <path d="M1051,767.3359 C1051,757.3359 1069,757.3359 1069,757.3359 C1069,757.3359 1087,757.3359 1087,767.3359 L1087,793.3359 C1087,803.3359 1069,803.3359 1069,803.3359 C1069,803.3359 1051,803.3359 1051,793.3359 L1051,767.3359 "
              fill="#FEFECE" filter="url(#f1153pcdpsfbgp)" style="stroke:#000000;stroke-width:1.5;"/>
        <path d="M1051,767.3359 C1051,777.3359 1069,777.3359 1069,777.3359 C1069,777.3359 1087,777.3359 1087,767.3359 "
              fill="none" style="stroke:#000000;stroke-width:1.5;"/>
        <rect fill="#FFFFFF" filter="url(#f1153pcdpsfbgp)" height="599.7891" style="stroke:#A80036;stroke-width:1.0;"
              width="10" x="276" y="133.25"/>
        <rect fill="#FFFFFF" filter="url(#f1153pcdpsfbgp)" height="599.7891" style="stroke:#A80036;stroke-width:1.0;"
              width="10" x="448" y="133.25"/>
        <rect fill="#FFFFFF" filter="url(#f1153pcdpsfbgp)" height="599.7891" style="stroke:#A80036;stroke-width:1.0;"
              width="10" x="613" y="133.25"/>
        <rect fill="#FFFFFF" filter="url(#f1153pcdpsfbgp)" height="599.7891" style="stroke:#A80036;stroke-width:1.0;"
              width="10" x="748" y="133.25"/>
        <rect fill="#FFFFFF" filter="url(#f1153pcdpsfbgp)" height="599.7891" style="stroke:#A80036;stroke-width:1.0;"
              width="10" x="943" y="133.25"/>
        <polygon fill="#A80036" points="264,180.6484,274,184.6484,264,188.6484,268,184.6484"
                 style="stroke:#A80036;stroke-width:1.0;"/>
        <line style="stroke:#A80036;stroke-width:1.0;" x1="48" x2="270" y1="184.6484" y2="184.6484"/>
        <text fill="#000000" font-family="sans-serif" font-size="13" lengthAdjust="spacing" textLength="104" x="55"
              y="149.3169">CRUD operation
        </text>
        <text fill="#000000" font-family="sans-serif" font-size="13" lengthAdjust="spacing" textLength="200" x="59"
              y="164.4497">(GET/PUT/POST/DELETE/PATCH
        </text>
        <text fill="#000000" font-family="sans-serif" font-size="13" lengthAdjust="spacing" textLength="138" x="59"
              y="179.5825">with TX-ID in Cookie)
        </text>
        <line style="stroke:#A80036;stroke-width:1.0;" x1="286" x2="328" y1="228.9141" y2="228.9141"/>
        <line style="stroke:#A80036;stroke-width:1.0;" x1="328" x2="328" y1="228.9141" y2="241.9141"/>
        <line style="stroke:#A80036;stroke-width:1.0;" x1="287" x2="328" y1="241.9141" y2="241.9141"/>
        <polygon fill="#A80036" points="297,237.9141,287,241.9141,297,245.9141,293,241.9141"
                 style="stroke:#A80036;stroke-width:1.0;"/>
        <text fill="#000000" font-family="sans-serif" font-size="13" lengthAdjust="spacing" textLength="124" x="293"
              y="208.7153">read transaction ID
        </text>
        <text fill="#000000" font-family="sans-serif" font-size="13" lengthAdjust="spacing" textLength="80" x="297"
              y="223.8481">from Cookie
        </text>
        <polygon fill="#A80036" points="436,282.1797,446,286.1797,436,290.1797,440,286.1797"
                 style="stroke:#A80036;stroke-width:1.0;"/>
        <line style="stroke:#A80036;stroke-width:1.0;" x1="286" x2="442" y1="286.1797" y2="286.1797"/>
        <text fill="#000000" font-family="sans-serif" font-size="13" lengthAdjust="spacing" textLength="98" x="293"
              y="265.981">get transaction
        </text>
        <text fill="#000000" font-family="sans-serif" font-size="13" lengthAdjust="spacing" textLength="101" x="297"
              y="281.1138">(transaction ID)
        </text>
        <line style="stroke:#A80036;stroke-width:1.0;" x1="286" x2="296" y1="315.3125" y2="311.3125"/>
        <line style="stroke:#A80036;stroke-width:1.0;" x1="286" x2="296" y1="315.3125" y2="319.3125"/>
        <line style="stroke:#A80036;stroke-width:1.0;stroke-dasharray:2.0,2.0;" x1="286" x2="447" y1="315.3125"
              y2="315.3125"/>
        <text fill="#000000" font-family="sans-serif" font-size="13" lengthAdjust="spacing" textLength="138" x="303"
              y="310.2466">UniconfigTransaction
        </text>
        <path d="M230,330.3125 L299,330.3125 L299,337.3125 L289,347.3125 L230,347.3125 L230,330.3125 " fill="#EEEEEE"
              style="stroke:#000000;stroke-width:1.0;"/>
        <rect fill="none" height="365.5938" style="stroke:#000000;stroke-width:2.0;" width="902.5" x="230"
              y="330.3125"/>
        <text fill="#000000" font-family="sans-serif" font-size="13" font-weight="bold" lengthAdjust="spacing"
              textLength="24" x="245" y="343.3794">opt
        </text>
        <text fill="#000000" font-family="sans-serif" font-size="11" font-weight="bold" lengthAdjust="spacing"
              textLength="141" x="314" y="342.5229">["transaction is alive"]
        </text>
        <polygon fill="#A80036" points="601,364.5781,611,368.5781,601,372.5781,605,368.5781"
                 style="stroke:#A80036;stroke-width:1.0;"/>
        <line style="stroke:#A80036;stroke-width:1.0;" x1="286" x2="607" y1="368.5781" y2="368.5781"/>
        <text fill="#000000" font-family="sans-serif" font-size="13" lengthAdjust="spacing" textLength="133" x="293"
              y="363.5122">get DOM transaction
        </text>
        <line style="stroke:#A80036;stroke-width:1.0;" x1="286" x2="296" y1="397.7109" y2="393.7109"/>
        <line style="stroke:#A80036;stroke-width:1.0;" x1="286" x2="296" y1="397.7109" y2="401.7109"/>
        <line style="stroke:#A80036;stroke-width:1.0;stroke-dasharray:2.0,2.0;" x1="286" x2="612" y1="397.7109"
              y2="397.7109"/>
        <text fill="#000000" font-family="sans-serif" font-size="13" lengthAdjust="spacing" textLength="80" x="303"
              y="392.645">DatastoreTx
        </text>
        <polygon fill="#A80036" points="736,422.8438,746,426.8438,736,430.8438,740,426.8438"
                 style="stroke:#A80036;stroke-width:1.0;"/>
        <line style="stroke:#A80036;stroke-width:1.0;" x1="286" x2="742" y1="426.8438" y2="426.8438"/>
        <text fill="#000000" font-family="sans-serif" font-size="13" lengthAdjust="spacing" textLength="273" x="293"
              y="421.7778">invoke read/put/delete/merge (path, data)
        </text>
        <path d="M696.5,441.8438 L765.5,441.8438 L765.5,448.8438 L755.5,458.8438 L696.5,458.8438 L696.5,441.8438 "
              fill="#EEEEEE" style="stroke:#000000;stroke-width:1.0;"/>
        <rect fill="none" height="175.7969" style="stroke:#000000;stroke-width:2.0;" width="426" x="696.5"
              y="441.8438"/>
        <text fill="#000000" font-family="sans-serif" font-size="13" font-weight="bold" lengthAdjust="spacing"
              textLength="24" x="711.5" y="454.9106">opt
        </text>
        <text fill="#000000" font-family="sans-serif" font-size="11" font-weight="bold" lengthAdjust="spacing"
              textLength="137" x="780.5" y="454.0542">["data is not cached"]
        </text>
        <polygon fill="#A80036" points="931,476.1094,941,480.1094,931,484.1094,935,480.1094"
                 style="stroke:#A80036;stroke-width:1.0;"/>
        <line style="stroke:#A80036;stroke-width:1.0;" x1="758" x2="937" y1="480.1094" y2="480.1094"/>
        <text fill="#000000" font-family="sans-serif" font-size="13" lengthAdjust="spacing" textLength="161" x="765"
              y="475.0435">read data from database
        </text>
        <polygon fill="#A80036" points="1057,505.2422,1067,509.2422,1057,513.2422,1061,509.2422"
                 style="stroke:#A80036;stroke-width:1.0;"/>
        <line style="stroke:#A80036;stroke-width:1.0;" x1="953" x2="1063" y1="509.2422" y2="509.2422"/>
        <text fill="#000000" font-family="sans-serif" font-size="13" lengthAdjust="spacing" textLength="92" x="960"
              y="504.1763">select entities
        </text>
        <line style="stroke:#A80036;stroke-width:1.0;" x1="953" x2="963" y1="538.375" y2="534.375"/>
        <line style="stroke:#A80036;stroke-width:1.0;" x1="953" x2="963" y1="538.375" y2="542.375"/>
        <line style="stroke:#A80036;stroke-width:1.0;stroke-dasharray:2.0,2.0;" x1="953" x2="1068" y1="538.375"
              y2="538.375"/>
        <text fill="#000000" font-family="sans-serif" font-size="13" lengthAdjust="spacing" textLength="31" x="970"
              y="533.3091">rows
        </text>
        <line style="stroke:#A80036;stroke-width:1.0;" x1="758" x2="768" y1="567.5078" y2="563.5078"/>
        <line style="stroke:#A80036;stroke-width:1.0;" x1="758" x2="768" y1="567.5078" y2="571.5078"/>
        <line style="stroke:#A80036;stroke-width:1.0;stroke-dasharray:2.0,2.0;" x1="758" x2="942" y1="567.5078"
              y2="567.5078"/>
        <text fill="#000000" font-family="sans-serif" font-size="13" lengthAdjust="spacing" textLength="29" x="775"
              y="562.4419">data
        </text>
        <line style="stroke:#A80036;stroke-width:1.0;" x1="758" x2="800" y1="596.6406" y2="596.6406"/>
        <line style="stroke:#A80036;stroke-width:1.0;" x1="800" x2="800" y1="596.6406" y2="609.6406"/>
        <line style="stroke:#A80036;stroke-width:1.0;" x1="759" x2="800" y1="609.6406" y2="609.6406"/>
        <polygon fill="#A80036" points="769,605.6406,759,609.6406,769,613.6406,765,609.6406"
                 style="stroke:#A80036;stroke-width:1.0;"/>
        <text fill="#000000" font-family="sans-serif" font-size="13" lengthAdjust="spacing" textLength="160" x="765"
              y="591.5747">write data to transaction
        </text>
        <line style="stroke:#A80036;stroke-width:1.0;" x1="758" x2="800" y1="645.7734" y2="645.7734"/>
        <line style="stroke:#A80036;stroke-width:1.0;" x1="800" x2="800" y1="645.7734" y2="658.7734"/>
        <line style="stroke:#A80036;stroke-width:1.0;" x1="759" x2="800" y1="658.7734" y2="658.7734"/>
        <polygon fill="#A80036" points="769,654.7734,759,658.7734,769,662.7734,765,658.7734"
                 style="stroke:#A80036;stroke-width:1.0;"/>
        <text fill="#000000" font-family="sans-serif" font-size="13" lengthAdjust="spacing" textLength="118" x="765"
              y="640.7075">perform operation
        </text>
        <line style="stroke:#A80036;stroke-width:1.0;" x1="286" x2="296" y1="687.9063" y2="683.9063"/>
        <line style="stroke:#A80036;stroke-width:1.0;" x1="286" x2="296" y1="687.9063" y2="691.9063"/>
        <line style="stroke:#A80036;stroke-width:1.0;stroke-dasharray:2.0,2.0;" x1="286" x2="747" y1="687.9063"
              y2="687.9063"/>
        <text fill="#000000" font-family="sans-serif" font-size="13" lengthAdjust="spacing" textLength="56" x="303"
              y="682.8403">ack/data
        </text>
        <line style="stroke:#A80036;stroke-width:1.0;" x1="48" x2="58" y1="724.0391" y2="720.0391"/>
        <line style="stroke:#A80036;stroke-width:1.0;" x1="48" x2="58" y1="724.0391" y2="728.0391"/>
        <line style="stroke:#A80036;stroke-width:1.0;stroke-dasharray:2.0,2.0;" x1="48" x2="275" y1="724.0391"
              y2="724.0391"/>
        <text fill="#000000" font-family="sans-serif" font-size="13" lengthAdjust="spacing" textLength="59" x="65"
              y="718.9731">response
        </text><!--MD5=[a8c9ca8876578b2cabd7fb3bd5a459bd]
@startuml
title "Invocation of CRUD operation in UniConfig transaction"

actor Application
boundary RESTCONF
control TransactionManager
entity UniconfigTransaction
entity DatastoreTx
entity DatabaseTx
database PostgreSQL

activate RESTCONF
activate TransactionManager
activate UniconfigTransaction
activate DatastoreTx
activate DatabaseTx

Application -> RESTCONF: CRUD operation\n (GET/PUT/POST/DELETE/PATCH\n with TX-ID in Cookie)
RESTCONF -> RESTCONF: read transaction ID\n from Cookie
RESTCONF -> TransactionManager: get transaction\n (transaction ID)
TransactionManager - ->> RESTCONF: UniconfigTransaction

opt "transaction is alive"
    RESTCONF -> UniconfigTransaction: get DOM transaction
    UniconfigTransaction - ->> RESTCONF: DatastoreTx
    RESTCONF -> DatastoreTx: invoke read/put/delete/merge (path, data)

    opt "data is not cached"
        DatastoreTx -> DatabaseTx: read data from database
        DatabaseTx -> PostgreSQL: select entities
        PostgreSQL - ->> DatabaseTx: rows
        DatabaseTx - ->> DatastoreTx: data
        DatastoreTx -> DatastoreTx: write data to transaction
    end
    DatastoreTx -> DatastoreTx: perform operation
    DatastoreTx - ->> RESTCONF: ack/data
end

RESTCONF - ->> Application: response
@enduml

PlantUML version 1.2021.11(Sat Oct 02 15:26:11 CEST 2021)
(GPL source distribution)
Java Runtime: OpenJDK Runtime Environment
JVM: OpenJDK 64-Bit Server VM
Default Encoding: UTF-8
Language: en
Country: GB
-->
    </g>
</svg>