<?xml version="1.0" encoding="UTF-8" standalone="no"?><svg xmlns="http://www.w3.org/2000/svg" xmlns:xlink="http://www.w3.org/1999/xlink" contentScriptType="application/ecmascript" contentStyleType="text/css" height="1489px" preserveAspectRatio="none" style="width:731px;height:1489px;" version="1.1" viewBox="0 0 731 1489" width="731px" zoomAndPan="magnify"><defs><filter height="300%" id="f1xi1mma3qam81" width="300%" x="-1" y="-1"><feGaussianBlur result="blurOut" stdDeviation="2.0"/><feColorMatrix in="blurOut" result="blurOut2" type="matrix" values="0 0 0 0 0 0 0 0 0 0 0 0 0 0 0 0 0 0 .4 0"/><feOffset dx="4.0" dy="4.0" in="blurOut2" result="blurOut3"/><feBlend in="SourceGraphic" in2="blurOut3" mode="normal"/></filter></defs><g><text fill="#000000" font-family="sans-serif" font-size="18" lengthAdjust="spacing" textLength="305" x="212" y="26.708">Processing template configuration</text><ellipse cx="430.5" cy="40.9531" fill="#000000" filter="url(#f1xi1mma3qam81)" rx="10" ry="10" style="stroke:none;stroke-width:1.0;"/><rect fill="#FEFECE" filter="url(#f1xi1mma3qam81)" height="33.9688" rx="12.5" ry="12.5" style="stroke:#A80036;stroke-width:1.5;" width="153" x="354" y="70.9531"/><text fill="#000000" font-family="sans-serif" font-size="12" lengthAdjust="spacing" textLength="133" x="364" y="92.0918">Stream template data</text><rect fill="#FFFFFF" filter="url(#f1xi1mma3qam81)" height="509.2202" style="stroke:#000000;stroke-width:2.0;" width="445.5" x="208" y="158.9219"/><path d="M346,158.9219 L346,168.2188 L336,178.2188 L208,178.2188 " fill="none" style="stroke:#000000;stroke-width:2.0;"/><text fill="#000000" font-family="sans-serif" font-size="14" lengthAdjust="spacing" textLength="128" x="211" y="172.917">String substitution</text><rect fill="#FEFECE" filter="url(#f1xi1mma3qam81)" height="33.9688" rx="12.5" ry="12.5" style="stroke:#A80036;stroke-width:1.5;" width="224" x="318.5" y="263.3247"/><text fill="#000000" font-family="sans-serif" font-size="12" lengthAdjust="spacing" textLength="204" x="328.5" y="284.4634">Extract variables from leaf/leaf-list</text><polygon fill="#FEFECE" filter="url(#f1xi1mma3qam81)" points="430.5,333.9971,442.5,345.9971,430.5,357.9971,418.5,345.9971,430.5,333.9971" style="stroke:#A80036;stroke-width:1.5;"/><text fill="#000000" font-family="sans-serif" font-size="11" lengthAdjust="spacing" textLength="161" x="436.5" y="318.5981">it is possible to substitute all</text><text fill="#000000" font-family="sans-serif" font-size="11" lengthAdjust="spacing" textLength="208" x="440.5" y="331.4028">variables by provided/default values</text><text fill="#000000" font-family="sans-serif" font-size="11" lengthAdjust="spacing" textLength="28" x="390.5" y="343.4028">[yes]</text><rect fill="#FEFECE" filter="url(#f1xi1mma3qam81)" height="33.9688" rx="12.5" ry="12.5" style="stroke:#A80036;stroke-width:1.5;" width="140" x="263.5" y="367.9971"/><text fill="#000000" font-family="sans-serif" font-size="12" lengthAdjust="spacing" textLength="120" x="273.5" y="389.1357">Substitute variables</text><rect fill="#FEFECE" filter="url(#f1xi1mma3qam81)" height="33.9688" rx="12.5" ry="12.5" style="stroke:#A80036;stroke-width:1.5;" width="191" x="238" y="435.9346"/><text fill="#000000" font-family="sans-serif" font-size="12" lengthAdjust="spacing" textLength="171" x="248" y="457.0732">Convert value to target type</text><rect fill="#FFC0CB" filter="url(#f1xi1mma3qam81)" height="47.9375" rx="12.5" ry="12.5" style="stroke:#A80036;stroke-width:1.5;" width="145" x="261" y="542.2046"/><text fill="#000000" font-family="sans-serif" font-size="12" lengthAdjust="spacing" textLength="108" x="271" y="563.3433">Throw exception -</text><text fill="#000000" font-family="sans-serif" font-size="12" lengthAdjust="spacing" textLength="121" x="275" y="577.312">invalid type of value</text><polygon fill="#FEFECE" filter="url(#f1xi1mma3qam81)" points="333.5,493.8022,345.5,505.8022,333.5,517.8022,321.5,505.8022,333.5,493.8022" style="stroke:#A80036;stroke-width:1.5;"/><text fill="#000000" font-family="sans-serif" font-size="11" lengthAdjust="spacing" textLength="110" x="339.5" y="491.208">did conversion fail?</text><text fill="#000000" font-family="sans-serif" font-size="11" lengthAdjust="spacing" textLength="28" x="339.5" y="528.0127">[yes]</text><rect fill="#FFC0CB" filter="url(#f1xi1mma3qam81)" height="47.9375" rx="12.5" ry="12.5" style="stroke:#A80036;stroke-width:1.5;" width="157" x="449" y="367.9971"/><text fill="#000000" font-family="sans-serif" font-size="12" lengthAdjust="spacing" textLength="108" x="459" y="389.1357">Throw exception -</text><text fill="#000000" font-family="sans-serif" font-size="12" lengthAdjust="spacing" textLength="133" x="463" y="403.1045">missing variable value</text><polygon fill="#FEFECE" filter="url(#f1xi1mma3qam81)" points="430.5,214.9224,442.5,226.9224,430.5,238.9224,418.5,226.9224,430.5,214.9224" style="stroke:#A80036;stroke-width:1.5;"/><text fill="#000000" font-family="sans-serif" font-size="11" lengthAdjust="spacing" textLength="140" x="436.5" y="199.5234">data node is leaf/leaf-list</text><text fill="#000000" font-family="sans-serif" font-size="11" lengthAdjust="spacing" textLength="114" x="440.5" y="212.3281">with some variables</text><text fill="#000000" font-family="sans-serif" font-size="11" lengthAdjust="spacing" textLength="28" x="436.5" y="249.1328">[yes]</text><polygon fill="#FEFECE" filter="url(#f1xi1mma3qam81)" points="430.5,632.1421,442.5,644.1421,430.5,656.1421,418.5,644.1421,430.5,632.1421" style="stroke:#A80036;stroke-width:1.5;"/><rect fill="#FFFFFF" filter="url(#f1xi1mma3qam81)" height="704.0791" style="stroke:#000000;stroke-width:2.0;" width="682" x="11" y="678.1421"/><path d="M112,678.1421 L112,687.439 L102,697.439 L11,697.439 " fill="none" style="stroke:#000000;stroke-width:2.0;"/><text fill="#000000" font-family="sans-serif" font-size="14" lengthAdjust="spacing" textLength="91" x="14" y="692.1372">Version drop</text><rect fill="#FEFECE" filter="url(#f1xi1mma3qam81)" height="33.9688" rx="12.5" ry="12.5" style="stroke:#A80036;stroke-width:1.5;" width="208" x="326.5" y="769.7402"/><text fill="#000000" font-family="sans-serif" font-size="12" lengthAdjust="spacing" textLength="188" x="336.5" y="790.8789">Search for target schema node</text><polygon fill="#FEFECE" filter="url(#f1xi1mma3qam81)" points="430.5,836.6548,442.5,848.6548,430.5,860.6548,418.5,848.6548,430.5,836.6548" style="stroke:#A80036;stroke-width:1.5;"/><text fill="#000000" font-family="sans-serif" font-size="11" lengthAdjust="spacing" textLength="183" x="436.5" y="834.0605">is node found in target schema?</text><text fill="#000000" font-family="sans-serif" font-size="11" lengthAdjust="spacing" textLength="28" x="390.5" y="846.0605">[yes]</text><rect fill="#FEFECE" filter="url(#f1xi1mma3qam81)" height="33.9688" rx="12.5" ry="12.5" style="stroke:#A80036;stroke-width:1.5;" width="240" x="145.5" y="870.6548"/><text fill="#000000" font-family="sans-serif" font-size="12" lengthAdjust="spacing" textLength="220" x="155.5" y="891.7935">Convert data node to target schema</text><rect fill="#FFC0CB" filter="url(#f1xi1mma3qam81)" height="47.9375" rx="12.5" ry="12.5" style="stroke:#A80036;stroke-width:1.5;" width="145" x="193" y="976.9248"/><text fill="#000000" font-family="sans-serif" font-size="12" lengthAdjust="spacing" textLength="108" x="203" y="998.0635">Throw exception -</text><text fill="#000000" font-family="sans-serif" font-size="12" lengthAdjust="spacing" textLength="121" x="207" y="1012.0322">invalid type of value</text><polygon fill="#FEFECE" filter="url(#f1xi1mma3qam81)" points="265.5,928.5225,277.5,940.5225,265.5,952.5225,253.5,940.5225,265.5,928.5225" style="stroke:#A80036;stroke-width:1.5;"/><text fill="#000000" font-family="sans-serif" font-size="11" lengthAdjust="spacing" textLength="110" x="271.5" y="925.9282">did conversion fail?</text><text fill="#000000" font-family="sans-serif" font-size="11" lengthAdjust="spacing" textLength="28" x="271.5" y="962.7329">[yes]</text><rect fill="#FFFFFF" filter="url(#f1xi1mma3qam81)" height="230.5229" style="stroke:#000000;stroke-width:2.0;" width="485" x="23" y="1065.6982"/><path d="M112,1065.6982 L112,1074.9951 L102,1084.9951 L23,1084.9951 " fill="none" style="stroke:#000000;stroke-width:2.0;"/><text fill="#000000" font-family="sans-serif" font-size="14" lengthAdjust="spacing" textLength="79" x="26" y="1079.6934">Tags writer</text><polygon fill="#FEFECE" filter="url(#f1xi1mma3qam81)" points="45,1104.9951,220,1104.9951,232,1116.9951,220,1128.9951,45,1128.9951,33,1116.9951,45,1104.9951" style="stroke:#A80036;stroke-width:1.5;"/><text fill="#000000" font-family="sans-serif" font-size="11" lengthAdjust="spacing" textLength="28" x="136.5" y="1139.2056">[yes]</text><text fill="#000000" font-family="sans-serif" font-size="11" lengthAdjust="spacing" textLength="175" x="45" y="1120.8032">is this the first/root data node?</text><rect fill="#FEFECE" filter="url(#f1xi1mma3qam81)" height="33.9688" rx="12.5" ry="12.5" style="stroke:#A80036;stroke-width:1.5;" width="199" x="33" y="1161.5103"/><text fill="#000000" font-family="sans-serif" font-size="12" lengthAdjust="spacing" textLength="179" x="43" y="1182.6489">Merge data to Uniconfig node</text><polygon fill="#FEFECE" filter="url(#f1xi1mma3qam81)" points="274,1104.1904,426,1104.1904,438,1116.9951,426,1129.7998,274,1129.7998,262,1116.9951,274,1104.1904" style="stroke:#A80036;stroke-width:1.5;"/><text fill="#000000" font-family="sans-serif" font-size="11" lengthAdjust="spacing" textLength="28" x="354" y="1140.0103">[yes]</text><text fill="#000000" font-family="sans-serif" font-size="11" lengthAdjust="spacing" textLength="135" x="274" y="1114.4009">is tag on node specified</text><text fill="#000000" font-family="sans-serif" font-size="11" lengthAdjust="spacing" textLength="148" x="278" y="1127.2056">OR is parent tag 'update'?</text><rect fill="#FEFECE" filter="url(#f1xi1mma3qam81)" height="33.9688" rx="12.5" ry="12.5" style="stroke:#A80036;stroke-width:1.5;" width="155" x="272.5" y="1162.3149"/><text fill="#000000" font-family="sans-serif" font-size="12" lengthAdjust="spacing" textLength="135" x="282.5" y="1183.4536">Remove tag from data</text><rect fill="#FEFECE" filter="url(#f1xi1mma3qam81)" height="47.9375" rx="12.5" ry="12.5" style="stroke:#A80036;stroke-width:1.5;" width="196" x="252" y="1216.2837"/><text fill="#000000" font-family="sans-serif" font-size="12" lengthAdjust="spacing" textLength="176" x="262" y="1237.4224">Apply data to Uniconfig node</text><text fill="#000000" font-family="sans-serif" font-size="12" lengthAdjust="spacing" textLength="91" x="266" y="1251.3911">with actual tag</text><rect fill="#FEFECE" filter="url(#f1xi1mma3qam81)" height="33.9688" rx="12.5" ry="12.5" style="stroke:#A80036;stroke-width:1.5;" width="135" x="528" y="870.6548"/><text fill="#000000" font-family="sans-serif" font-size="12" lengthAdjust="spacing" textLength="115" x="538" y="891.7935">Skip whole subtree</text><polygon fill="#FEFECE" filter="url(#f1xi1mma3qam81)" points="430.5,1302.2212,442.5,1314.2212,430.5,1326.2212,418.5,1314.2212,430.5,1302.2212" style="stroke:#A80036;stroke-width:1.5;"/><polygon fill="#FEFECE" filter="url(#f1xi1mma3qam81)" points="430.5,721.3379,442.5,733.3379,430.5,745.3379,418.5,733.3379,430.5,721.3379" style="stroke:#A80036;stroke-width:1.5;"/><text fill="#000000" font-family="sans-serif" font-size="11" lengthAdjust="spacing" textLength="147" x="436.5" y="718.7437">is actual subtree skipped?</text><text fill="#000000" font-family="sans-serif" font-size="11" lengthAdjust="spacing" textLength="22" x="436.5" y="755.5483">[no]</text><polygon fill="#FEFECE" filter="url(#f1xi1mma3qam81)" points="430.5,1346.2212,442.5,1358.2212,430.5,1370.2212,418.5,1358.2212,430.5,1346.2212" style="stroke:#A80036;stroke-width:1.5;"/><polygon fill="#FEFECE" filter="url(#f1xi1mma3qam81)" points="430.5,124.9219,442.5,136.9219,430.5,148.9219,418.5,136.9219,430.5,124.9219" style="stroke:#A80036;stroke-width:1.5;"/><polygon fill="#FEFECE" filter="url(#f1xi1mma3qam81)" points="430.5,1406.9248,442.5,1418.9248,430.5,1430.9248,418.5,1418.9248,430.5,1406.9248" style="stroke:#A80036;stroke-width:1.5;"/><text fill="#000000" font-family="sans-serif" font-size="11" lengthAdjust="spacing" textLength="144" x="442.5" y="1403.5259">is there a next data node</text><text fill="#000000" font-family="sans-serif" font-size="11" lengthAdjust="spacing" textLength="82" x="446.5" y="1416.3306">in the stream?</text><ellipse cx="430.5" cy="1461.9248" fill="#FFFFFF" filter="url(#f1xi1mma3qam81)" rx="11" ry="11" style="stroke:#000000;stroke-width:1.0;"/><ellipse cx="430.5" cy="1461.9248" fill="#000000" rx="6" ry="6" style="stroke:#7F7F7F;stroke-width:1.0;"/><line style="stroke:#A80036;stroke-width:1.5;" x1="430.5" x2="430.5" y1="50.9531" y2="70.9531"/><polygon fill="#A80036" points="426.5,60.9531,430.5,70.9531,434.5,60.9531,430.5,64.9531" style="stroke:#A80036;stroke-width:1.0;"/><line style="stroke:#A80036;stroke-width:1.5;" x1="333.5" x2="333.5" y1="401.9658" y2="435.9346"/><polygon fill="#A80036" points="329.5,425.9346,333.5,435.9346,337.5,425.9346,333.5,429.9346" style="stroke:#A80036;stroke-width:1.0;"/><line style="stroke:#A80036;stroke-width:1.5;" x1="333.5" x2="333.5" y1="517.8022" y2="542.2046"/><polygon fill="#A80036" points="329.5,532.2046,333.5,542.2046,337.5,532.2046,333.5,536.2046" style="stroke:#A80036;stroke-width:1.0;"/><line style="stroke:#A80036;stroke-width:1.5;" x1="345.5" x2="430.5" y1="505.8022" y2="505.8022"/><polygon fill="#A80036" points="426.5,568.3745,430.5,578.3745,434.5,568.3745,430.5,572.3745" style="stroke:#A80036;stroke-width:1.5;"/><line style="stroke:#A80036;stroke-width:1.5;" x1="430.5" x2="430.5" y1="505.8022" y2="632.1421"/><polygon fill="#A80036" points="426.5,622.1421,430.5,632.1421,434.5,622.1421,430.5,626.1421" style="stroke:#A80036;stroke-width:1.0;"/><line style="stroke:#A80036;stroke-width:1.5;" x1="333.5" x2="333.5" y1="469.9033" y2="493.8022"/><polygon fill="#A80036" points="329.5,483.8022,333.5,493.8022,337.5,483.8022,333.5,487.8022" style="stroke:#A80036;stroke-width:1.0;"/><line style="stroke:#A80036;stroke-width:1.5;" x1="418.5" x2="333.5" y1="345.9971" y2="345.9971"/><line style="stroke:#A80036;stroke-width:1.5;" x1="333.5" x2="333.5" y1="345.9971" y2="367.9971"/><polygon fill="#A80036" points="329.5,357.9971,333.5,367.9971,337.5,357.9971,333.5,361.9971" style="stroke:#A80036;stroke-width:1.0;"/><line style="stroke:#A80036;stroke-width:1.5;" x1="442.5" x2="527.5" y1="345.9971" y2="345.9971"/><line style="stroke:#A80036;stroke-width:1.5;" x1="527.5" x2="527.5" y1="345.9971" y2="367.9971"/><polygon fill="#A80036" points="523.5,357.9971,527.5,367.9971,531.5,357.9971,527.5,361.9971" style="stroke:#A80036;stroke-width:1.0;"/><line style="stroke:#A80036;stroke-width:1.5;" x1="430.5" x2="430.5" y1="297.2935" y2="333.9971"/><polygon fill="#A80036" points="426.5,323.9971,430.5,333.9971,434.5,323.9971,430.5,327.9971" style="stroke:#A80036;stroke-width:1.0;"/><line style="stroke:#A80036;stroke-width:1.5;" x1="430.5" x2="430.5" y1="238.9224" y2="263.3247"/><polygon fill="#A80036" points="426.5,253.3247,430.5,263.3247,434.5,253.3247,430.5,257.3247" style="stroke:#A80036;stroke-width:1.0;"/><line style="stroke:#A80036;stroke-width:1.5;" x1="442.5" x2="626" y1="226.9224" y2="226.9224"/><polygon fill="#A80036" points="622,434.4189,626,444.4189,630,434.4189,626,438.4189" style="stroke:#A80036;stroke-width:1.5;"/><line style="stroke:#A80036;stroke-width:1.5;" x1="626" x2="626" y1="226.9224" y2="644.1421"/><line style="stroke:#A80036;stroke-width:1.5;" x1="626" x2="442.5" y1="644.1421" y2="644.1421"/><polygon fill="#A80036" points="452.5,640.1421,442.5,644.1421,452.5,648.1421,448.5,644.1421" style="stroke:#A80036;stroke-width:1.0;"/><line style="stroke:#A80036;stroke-width:1.5;" x1="265.5" x2="265.5" y1="952.5225" y2="976.9248"/><polygon fill="#A80036" points="261.5,966.9248,265.5,976.9248,269.5,966.9248,265.5,970.9248" style="stroke:#A80036;stroke-width:1.0;"/><line style="stroke:#A80036;stroke-width:1.5;" x1="277.5" x2="348" y1="940.5225" y2="940.5225"/><polygon fill="#A80036" points="344,987.8936,348,997.8936,352,987.8936,348,991.8936" style="stroke:#A80036;stroke-width:1.5;"/><line style="stroke:#A80036;stroke-width:1.5;" x1="348" x2="348" y1="940.5225" y2="1046.8623"/><line style="stroke:#A80036;stroke-width:1.5;" x1="348" x2="265.5" y1="1046.8623" y2="1046.8623"/><line style="stroke:#A80036;stroke-width:1.5;" x1="265.5" x2="265.5" y1="1046.8623" y2="1089.9951"/><line style="stroke:#A80036;stroke-width:1.5;" x1="265.5" x2="265.5" y1="904.6235" y2="928.5225"/><polygon fill="#A80036" points="261.5,918.5225,265.5,928.5225,269.5,918.5225,265.5,922.5225" style="stroke:#A80036;stroke-width:1.0;"/><line style="stroke:#A80036;stroke-width:1.5;" x1="350" x2="350" y1="1196.2837" y2="1216.2837"/><polygon fill="#A80036" points="346,1206.2837,350,1216.2837,354,1206.2837,350,1210.2837" style="stroke:#A80036;stroke-width:1.0;"/><line style="stroke:#A80036;stroke-width:1.5;" x1="132.5" x2="132.5" y1="1128.9951" y2="1161.5103"/><polygon fill="#A80036" points="128.5,1151.5103,132.5,1161.5103,136.5,1151.5103,132.5,1155.5103" style="stroke:#A80036;stroke-width:1.0;"/><line style="stroke:#A80036;stroke-width:1.5;" x1="132.5" x2="132.5" y1="1195.479" y2="1284.2212"/><polygon fill="#A80036" points="128.5,1274.2212,132.5,1284.2212,136.5,1274.2212,132.5,1278.2212" style="stroke:#A80036;stroke-width:1.0;"/><line style="stroke:#A80036;stroke-width:1.5;" x1="350" x2="350" y1="1129.7998" y2="1162.3149"/><polygon fill="#A80036" points="346,1152.3149,350,1162.3149,354,1152.3149,350,1156.3149" style="stroke:#A80036;stroke-width:1.0;"/><line style="stroke:#A80036;stroke-width:1.5;" x1="350" x2="350" y1="1264.2212" y2="1284.2212"/><polygon fill="#A80036" points="346,1274.2212,350,1284.2212,354,1274.2212,350,1278.2212" style="stroke:#A80036;stroke-width:1.0;"/><line style="stroke:#A80036;stroke-width:1.5;" x1="232" x2="262" y1="1116.9951" y2="1116.9951"/><polygon fill="#A80036" points="252,1112.9951,262,1116.9951,252,1120.9951,256,1116.9951" style="stroke:#A80036;stroke-width:1.0;"/><line style="stroke:#A80036;stroke-width:1.5;" x1="265.5" x2="132.5" y1="1089.9951" y2="1089.9951"/><line style="stroke:#A80036;stroke-width:1.5;" x1="132.5" x2="132.5" y1="1089.9951" y2="1104.9951"/><polygon fill="#A80036" points="128.5,1094.9951,132.5,1104.9951,136.5,1094.9951,132.5,1098.9951" style="stroke:#A80036;stroke-width:1.0;"/><line style="stroke:#A80036;stroke-width:1.5;" x1="438" x2="483" y1="1116.9951" y2="1116.9951"/><line style="stroke:#A80036;stroke-width:1.5;" x1="483" x2="483" y1="1116.9951" y2="1284.2212"/><polygon fill="#A80036" points="479,1274.2212,483,1284.2212,487,1274.2212,483,1278.2212" style="stroke:#A80036;stroke-width:1.0;"/><line style="stroke:#A80036;stroke-width:1.5;" x1="132.5" x2="483" y1="1284.2212" y2="1284.2212"/><line style="stroke:#A80036;stroke-width:1.5;" x1="418.5" x2="265.5" y1="848.6548" y2="848.6548"/><line style="stroke:#A80036;stroke-width:1.5;" x1="265.5" x2="265.5" y1="848.6548" y2="870.6548"/><polygon fill="#A80036" points="261.5,860.6548,265.5,870.6548,269.5,860.6548,265.5,864.6548" style="stroke:#A80036;stroke-width:1.0;"/><line style="stroke:#A80036;stroke-width:1.5;" x1="442.5" x2="595.5" y1="848.6548" y2="848.6548"/><line style="stroke:#A80036;stroke-width:1.5;" x1="595.5" x2="595.5" y1="848.6548" y2="870.6548"/><polygon fill="#A80036" points="591.5,860.6548,595.5,870.6548,599.5,860.6548,595.5,864.6548" style="stroke:#A80036;stroke-width:1.0;"/><line style="stroke:#A80036;stroke-width:1.5;" x1="265.5" x2="265.5" y1="1284.2212" y2="1314.2212"/><line style="stroke:#A80036;stroke-width:1.5;" x1="265.5" x2="418.5" y1="1314.2212" y2="1314.2212"/><polygon fill="#A80036" points="408.5,1310.2212,418.5,1314.2212,408.5,1318.2212,412.5,1314.2212" style="stroke:#A80036;stroke-width:1.0;"/><line style="stroke:#A80036;stroke-width:1.5;" x1="595.5" x2="595.5" y1="904.6235" y2="1314.2212"/><line style="stroke:#A80036;stroke-width:1.5;" x1="595.5" x2="442.5" y1="1314.2212" y2="1314.2212"/><polygon fill="#A80036" points="452.5,1310.2212,442.5,1314.2212,452.5,1318.2212,448.5,1314.2212" style="stroke:#A80036;stroke-width:1.0;"/><line style="stroke:#A80036;stroke-width:1.5;" x1="430.5" x2="430.5" y1="803.709" y2="836.6548"/><polygon fill="#A80036" points="426.5,826.6548,430.5,836.6548,434.5,826.6548,430.5,830.6548" style="stroke:#A80036;stroke-width:1.0;"/><line style="stroke:#A80036;stroke-width:1.5;" x1="430.5" x2="430.5" y1="745.3379" y2="769.7402"/><polygon fill="#A80036" points="426.5,759.7402,430.5,769.7402,434.5,759.7402,430.5,763.7402" style="stroke:#A80036;stroke-width:1.0;"/><line style="stroke:#A80036;stroke-width:1.5;" x1="442.5" x2="677" y1="733.3379" y2="733.3379"/><polygon fill="#A80036" points="673,1056.8623,677,1066.8623,681,1056.8623,677,1060.8623" style="stroke:#A80036;stroke-width:1.5;"/><line style="stroke:#A80036;stroke-width:1.5;" x1="677" x2="677" y1="733.3379" y2="1358.2212"/><line style="stroke:#A80036;stroke-width:1.5;" x1="677" x2="442.5" y1="1358.2212" y2="1358.2212"/><polygon fill="#A80036" points="452.5,1354.2212,442.5,1358.2212,452.5,1362.2212,448.5,1358.2212" style="stroke:#A80036;stroke-width:1.0;"/><line style="stroke:#A80036;stroke-width:1.5;" x1="430.5" x2="430.5" y1="1326.2212" y2="1346.2212"/><polygon fill="#A80036" points="426.5,1336.2212,430.5,1346.2212,434.5,1336.2212,430.5,1340.2212" style="stroke:#A80036;stroke-width:1.0;"/><line style="stroke:#A80036;stroke-width:1.5;" x1="430.5" x2="430.5" y1="656.1421" y2="721.3379"/><polygon fill="#A80036" points="426.5,711.3379,430.5,721.3379,434.5,711.3379,430.5,715.3379" style="stroke:#A80036;stroke-width:1.0;"/><line style="stroke:#A80036;stroke-width:1.5;" x1="430.5" x2="430.5" y1="148.9219" y2="214.9224"/><polygon fill="#A80036" points="426.5,204.9224,430.5,214.9224,434.5,204.9224,430.5,208.9224" style="stroke:#A80036;stroke-width:1.0;"/><line style="stroke:#A80036;stroke-width:1.5;" x1="442.5" x2="705" y1="1418.9248" y2="1418.9248"/><polygon fill="#A80036" points="701,812.7559,705,802.7559,709,812.7559,705,808.7559" style="stroke:#A80036;stroke-width:1.5;"/><line style="stroke:#A80036;stroke-width:1.5;" x1="705" x2="705" y1="136.9219" y2="1418.9248"/><line style="stroke:#A80036;stroke-width:1.5;" x1="705" x2="442.5" y1="136.9219" y2="136.9219"/><polygon fill="#A80036" points="452.5,132.9219,442.5,136.9219,452.5,140.9219,448.5,136.9219" style="stroke:#A80036;stroke-width:1.0;"/><line style="stroke:#A80036;stroke-width:1.5;" x1="430.5" x2="430.5" y1="1370.2212" y2="1406.9248"/><polygon fill="#A80036" points="426.5,1396.9248,430.5,1406.9248,434.5,1396.9248,430.5,1400.9248" style="stroke:#A80036;stroke-width:1.0;"/><line style="stroke:#A80036;stroke-width:1.5;" x1="430.5" x2="430.5" y1="104.9219" y2="124.9219"/><polygon fill="#A80036" points="426.5,114.9219,430.5,124.9219,434.5,114.9219,430.5,118.9219" style="stroke:#A80036;stroke-width:1.0;"/><line style="stroke:#A80036;stroke-width:1.5;" x1="430.5" x2="430.5" y1="1430.9248" y2="1450.9248"/><polygon fill="#A80036" points="426.5,1440.9248,430.5,1450.9248,434.5,1440.9248,430.5,1444.9248" style="stroke:#A80036;stroke-width:1.0;"/><!--MD5=[bebf4bbf71f1e4f6f4ec2d4b249c5e3f]
@startuml
skinparam conditionStyle diamond
title "Processing template configuration"

start
:Stream template data;
repeat
    partition "String substitution" {
        if (data node is leaf/leaf-list\n with some variables) then ([yes])
            :Extract variables from leaf/leaf-list;
            if (it is possible to substitute all\n variables by provided/default values) then ([yes])
                :Substitute variables;
                :Convert value to target type;
                if (did conversion fail?) then ([yes])
                    #pink:Throw exception -\n invalid type of value;
                    kill
                endif
            else
                #pink:Throw exception -\n missing variable value;
                kill
            endif
        endif
    }

    partition "Version drop" {
        if (is actual subtree skipped?) then ([no])
            :Search for target schema node;
            if (is node found in target schema?) then ([yes])
                :Convert data node to target schema;
                if (did conversion fail?) then ([yes])
                    #pink:Throw exception -\n invalid type of value;
                    kill
                endif

                partition "Tags writer" {
                    if (is this the first/root data node?) then ([yes])
                        :Merge data to Uniconfig node;
                    elseif (is tag on node specified\n OR is parent tag 'update'?) then ([yes])
                        :Remove tag from data;
                        :Apply data to Uniconfig node\n with actual tag;
                    endif
                }
            else
                :Skip whole subtree;
            endif
        endif
    }
repeat while (is there a next data node\n in the stream?) is ([yes])
stop
@enduml

PlantUML version 1.2021.00(Sun Jan 10 11:25:05 CET 2021)
(GPL source distribution)
Java Runtime: OpenJDK Runtime Environment
JVM: OpenJDK 64-Bit Server VM
Default Encoding: UTF-8
Language: en
Country: GB
--></g></svg>