<?xml version="1.0" encoding="us-ascii" standalone="no"?>
<svg xmlns="http://www.w3.org/2000/svg" xmlns:xlink="http://www.w3.org/1999/xlink" contentStyleType="text/css"
     height="588px" preserveAspectRatio="none" style="width:731px;height:588px;background:#FFFFFF;" version="1.1"
     viewBox="0 0 731 588" width="731px" zoomAndPan="magnify">
    <defs/>
    <g>
        <text fill="#000000" font-family="sans-serif" font-size="14" font-weight="bold" lengthAdjust="spacing"
              textLength="226" x="254.25" y="29.9659">RPC calculate-subtree-git-like-diff
        </text>
        <rect fill="#FFFFFF" height="438.4541" style="stroke:#181818;stroke-width:1.0;" width="10" x="360"
              y="134.1358"/>
        <rect fill="#FFFFFF" height="438.4541" style="stroke:#181818;stroke-width:1.0;" width="10" x="690"
              y="134.1358"/>
        <rect fill="none" height="188.512" style="stroke:#000000;stroke-width:1.5;" width="440.5" x="254.5"
              y="299.6659"/>
        <line style="stroke:#181818;stroke-width:0.5;stroke-dasharray:5.0,5.0;" x1="46" x2="46" y1="124.1358"
              y2="581.5899"/>
        <line style="stroke:#181818;stroke-width:0.5;stroke-dasharray:5.0,5.0;" x1="364.5" x2="364.5" y1="124.1358"
              y2="581.5899"/>
        <line style="stroke:#181818;stroke-width:0.5;stroke-dasharray:5.0,5.0;" x1="694.5" x2="694.5" y1="124.1358"
              y2="581.5899"/>
        <text fill="#000000" font-family="sans-serif" font-size="14" lengthAdjust="spacing" textLength="76" x="5"
              y="120.0339">Application
        </text>
        <ellipse cx="46" cy="53.5679" fill="#E2E2F0" rx="8" ry="8" style="stroke:#181818;stroke-width:0.5;"/>
        <path d="M46,61.5679 L46,88.5679 M33,69.5679 L59,69.5679 M46,88.5679 L33,103.5679 M46,88.5679 L59,103.5679 "
              fill="none" style="stroke:#181818;stroke-width:0.5;"/>
        <rect fill="#E2E2F0" height="33.0679" rx="2.5" ry="2.5" style="stroke:#181818;stroke-width:0.5;" width="201"
              x="264.5" y="90.0679"/>
        <text fill="#000000" font-family="sans-serif" font-size="14" lengthAdjust="spacing" textLength="187" x="271.5"
              y="112.0339">Uniconfig Subtree Manager
        </text>
        <text fill="#000000" font-family="sans-serif" font-size="14" lengthAdjust="spacing" textLength="65" x="659.5"
              y="120.0339">Datastore
        </text>
        <path d="M677,69.0679 C677,59.0679 695,59.0679 695,59.0679 C695,59.0679 713,59.0679 713,69.0679 L713,95.0679 C713,105.0679 695,105.0679 695,105.0679 C695,105.0679 677,105.0679 677,95.0679 L677,69.0679 "
              fill="#E2E2F0" style="stroke:#181818;stroke-width:1.5;"/>
        <path d="M677,69.0679 C677,79.0679 695,79.0679 695,79.0679 C695,79.0679 713,79.0679 713,69.0679 " fill="none"
              style="stroke:#181818;stroke-width:1.5;"/>
        <rect fill="#FFFFFF" height="438.4541" style="stroke:#181818;stroke-width:1.0;" width="10" x="360"
              y="134.1358"/>
        <rect fill="#FFFFFF" height="438.4541" style="stroke:#181818;stroke-width:1.0;" width="10" x="690"
              y="134.1358"/>
        <polygon fill="#181818" points="348,153.8419,358,157.8419,348,161.8419,352,157.8419"
                 style="stroke:#181818;stroke-width:1.0;"/>
        <line style="stroke:#181818;stroke-width:1.0;" x1="46" x2="354" y1="157.8419" y2="157.8419"/>
        <text fill="#000000" font-family="sans-serif" font-size="13" lengthAdjust="spacing" textLength="290" x="53"
              y="152.0328">RPC calculate-subtree-git-like-diff (source, target)
        </text>
        <polygon fill="#181818" points="678,185.5479,688,189.5479,678,193.5479,682,189.5479"
                 style="stroke:#181818;stroke-width:1.0;"/>
        <line style="stroke:#181818;stroke-width:1.0;" x1="370" x2="684" y1="189.5479" y2="189.5479"/>
        <text fill="#000000" font-family="sans-serif" font-size="13" lengthAdjust="spacing" textLength="226" x="377"
              y="183.7389">read source data by path and location
        </text>
        <line style="stroke:#181818;stroke-width:1.0;" x1="371" x2="381" y1="221.2539" y2="217.2539"/>
        <line style="stroke:#181818;stroke-width:1.0;" x1="371" x2="381" y1="221.2539" y2="225.2539"/>
        <line style="stroke:#181818;stroke-width:1.0;stroke-dasharray:2.0,2.0;" x1="370" x2="689" y1="221.2539"
              y2="221.2539"/>
        <text fill="#000000" font-family="sans-serif" font-size="13" lengthAdjust="spacing" textLength="89" x="387"
              y="215.4449">source subtree
        </text>
        <polygon fill="#181818" points="678,248.9599,688,252.9599,678,256.9599,682,252.9599"
                 style="stroke:#181818;stroke-width:1.0;"/>
        <line style="stroke:#181818;stroke-width:1.0;" x1="370" x2="684" y1="252.9599" y2="252.9599"/>
        <text fill="#000000" font-family="sans-serif" font-size="13" lengthAdjust="spacing" textLength="223" x="377"
              y="247.1509">read target data by path and location
        </text>
        <line style="stroke:#181818;stroke-width:1.0;" x1="371" x2="381" y1="284.6659" y2="280.6659"/>
        <line style="stroke:#181818;stroke-width:1.0;" x1="371" x2="381" y1="284.6659" y2="288.6659"/>
        <line style="stroke:#181818;stroke-width:1.0;stroke-dasharray:2.0,2.0;" x1="370" x2="689" y1="284.6659"
              y2="284.6659"/>
        <text fill="#000000" font-family="sans-serif" font-size="13" lengthAdjust="spacing" textLength="86" x="387"
              y="278.8569">target subtree
        </text>
        <path d="M254.5,299.6659 L314.5,299.6659 L314.5,309.3719 L304.5,319.3719 L254.5,319.3719 L254.5,299.6659 "
              fill="#EEEEEE" style="stroke:#000000;stroke-width:1.5;"/>
        <rect fill="none" height="188.512" style="stroke:#000000;stroke-width:1.5;" width="440.5" x="254.5"
              y="299.6659"/>
        <text fill="#000000" font-family="sans-serif" font-size="13" font-weight="bold" lengthAdjust="spacing"
              textLength="15" x="269.5" y="314.5629">alt
        </text>
        <text fill="#000000" font-family="sans-serif" font-size="11" font-weight="bold" lengthAdjust="spacing"
              textLength="250" x="329.5" y="313.4248">[source and target use different YANG schemas]
        </text>
        <line style="stroke:#181818;stroke-width:1.0;" x1="370" x2="412" y1="343.0779" y2="343.0779"/>
        <line style="stroke:#181818;stroke-width:1.0;" x1="412" x2="412" y1="343.0779" y2="356.0779"/>
        <line style="stroke:#181818;stroke-width:1.0;" x1="371" x2="412" y1="356.0779" y2="356.0779"/>
        <polygon fill="#181818" points="381,352.0779,371,356.0779,381,360.0779,377,356.0779"
                 style="stroke:#181818;stroke-width:1.0;"/>
        <text fill="#000000" font-family="sans-serif" font-size="13" lengthAdjust="spacing" textLength="306" x="377"
              y="337.2689">convert source and target data to opposite schema
        </text>
        <line style="stroke:#181818;stroke-width:1.0;" x1="370" x2="412" y1="405.49" y2="405.49"/>
        <line style="stroke:#181818;stroke-width:1.0;" x1="412" x2="412" y1="405.49" y2="418.49"/>
        <line style="stroke:#181818;stroke-width:1.0;" x1="371" x2="412" y1="418.49" y2="418.49"/>
        <polygon fill="#181818" points="381,414.49,371,418.49,381,422.49,377,418.49"
                 style="stroke:#181818;stroke-width:1.0;"/>
        <text fill="#000000" font-family="sans-serif" font-size="13" lengthAdjust="spacing" textLength="207" x="377"
              y="381.975">compare source to dropped target
        </text>
        <text fill="#000000" font-family="sans-serif" font-size="13" lengthAdjust="spacing" textLength="207" x="380"
              y="399.681">and target to dropped source data
        </text>
        <line style="stroke:#000000;stroke-width:1.0;stroke-dasharray:2.0,2.0;" x1="254.5" x2="695" y1="427.49"
              y2="427.49"/>
        <text fill="#000000" font-family="sans-serif" font-size="11" font-weight="bold" lengthAdjust="spacing"
              textLength="231" x="259.5" y="439.2489">[source and target use same YANG schemas]
        </text>
        <line style="stroke:#181818;stroke-width:1.0;" x1="370" x2="412" y1="467.1779" y2="467.1779"/>
        <line style="stroke:#181818;stroke-width:1.0;" x1="412" x2="412" y1="467.1779" y2="480.1779"/>
        <line style="stroke:#181818;stroke-width:1.0;" x1="371" x2="412" y1="480.1779" y2="480.1779"/>
        <polygon fill="#181818" points="381,476.1779,371,480.1779,381,484.1779,377,480.1779"
                 style="stroke:#181818;stroke-width:1.0;"/>
        <text fill="#000000" font-family="sans-serif" font-size="13" lengthAdjust="spacing" textLength="108" x="377"
              y="461.3689">compare subtrees
        </text>
        <line style="stroke:#181818;stroke-width:1.0;" x1="370" x2="412" y1="518.8839" y2="518.8839"/>
        <line style="stroke:#181818;stroke-width:1.0;" x1="412" x2="412" y1="518.8839" y2="531.8839"/>
        <line style="stroke:#181818;stroke-width:1.0;" x1="371" x2="412" y1="531.8839" y2="531.8839"/>
        <polygon fill="#181818" points="381,527.8839,371,531.8839,381,535.8839,377,531.8839"
                 style="stroke:#181818;stroke-width:1.0;"/>
        <text fill="#000000" font-family="sans-serif" font-size="13" lengthAdjust="spacing" textLength="177" x="377"
              y="513.0749">formatting diff to git-like style
        </text>
        <line style="stroke:#181818;stroke-width:1.0;" x1="47" x2="57" y1="563.5899" y2="559.5899"/>
        <line style="stroke:#181818;stroke-width:1.0;" x1="47" x2="57" y1="563.5899" y2="567.5899"/>
        <line style="stroke:#181818;stroke-width:1.0;stroke-dasharray:2.0,2.0;" x1="46" x2="359" y1="563.5899"
              y2="563.5899"/>
        <text fill="#000000" font-family="sans-serif" font-size="13" lengthAdjust="spacing" textLength="112" x="63"
              y="557.7809">RPC result with diff
        </text><!--SRC=[bPB1JiCm38RlUGgh9v3e2-mmQGA9qn1YsW69YvkwdKMQL8axsDkJj6dLmoQWfrJn__dtxvou9cYSayfzAs4n16-lZw3HwC6WK1c6IZnHsRAKXZ-fhBbfb48jpiEkxmrh57PMzUY5DVTe1OgZPUrimoqS9ZtiqM9BlW0CS3piLOs25GQ2uYcUGgHHCMBv7DkE9SlFKg7KgYEKsrIs-OjXk0jky9eUGD2t9FSgAXDWGM_04zOmbK5o1zK5UfGJeAt1k3pc8e2ot6O3MPGxtq9FdV-9pg8PhT38t2vfy_KGSqnZagUO_llkvHc2Fb67GK7yig4H6DTo9dyDCXeJ1wxlNU0O-uIuGkZYhcacH4NjeuPcq8TTKrVNgsmLcK0t1WdOqMypP0TJAa6HhPLQLpJEToZ2jXrpIIxczm11BYOlASMyUb7JK_8KXfZo5yVz9F4F]-->
    </g>
</svg>